# WaveFront *.obj file (generated by Autodesk ATF)

mtllib Circle.mtl

g Circle

v -45.000000 -0.000000 1.000000
v -44.911203 -2.825573 1.000000
v -44.645162 -5.639996 1.000000
v -44.202926 -8.432159 1.000000
v -43.586242 -11.191045 1.000000
v -42.797543 -13.905765 1.000000
v -41.839942 -16.565605 1.000000
v -40.717217 -19.160068 1.000000
v -39.433801 -21.678915 1.000000
v -37.994757 -24.112206 1.000000
v -36.405765 -26.450336 1.000000
v -34.673096 -28.684080 1.000000
v -32.803588 -30.804620 1.000000
v -30.804620 -32.803588 1.000000
v -28.684080 -34.673096 1.000000
v -26.450336 -36.405765 1.000000
v -24.112206 -37.994757 1.000000
v -21.678915 -39.433801 1.000000
v -19.160068 -40.717217 1.000000
v -16.565605 -41.839942 1.000000
v -13.905765 -42.797543 1.000000
v -11.191045 -43.586242 1.000000
v -8.432159 -44.202926 1.000000
v -5.639996 -44.645162 1.000000
v -2.825573 -44.911203 1.000000
v 0.000000 -45.000000 1.000000
v 2.825573 -44.911203 1.000000
v 5.639996 -44.645162 1.000000
v 8.432159 -44.202926 1.000000
v 11.191045 -43.586242 1.000000
v 13.905765 -42.797543 1.000000
v 16.565605 -41.839942 1.000000
v 19.160068 -40.717217 1.000000
v 21.678915 -39.433801 1.000000
v 24.112206 -37.994757 1.000000
v 26.450336 -36.405765 1.000000
v 28.684080 -34.673096 1.000000
v 30.804620 -32.803588 1.000000
v 32.803588 -30.804620 1.000000
v 34.673096 -28.684080 1.000000
v 36.405765 -26.450336 1.000000
v 37.994757 -24.112206 1.000000
v 39.433801 -21.678915 1.000000
v 40.717217 -19.160068 1.000000
v 41.839942 -16.565605 1.000000
v 42.797543 -13.905765 1.000000
v 43.586242 -11.191045 1.000000
v 44.202926 -8.432159 1.000000
v 44.645162 -5.639996 1.000000
v 44.911203 -2.825573 1.000000
v 45.000000 -0.000000 1.000000
v 44.911203 2.825573 1.000000
v 44.645162 5.639996 1.000000
v 44.202926 8.432159 1.000000
v 43.586242 11.191045 1.000000
v 42.797543 13.905765 1.000000
v 41.839942 16.565605 1.000000
v 40.717217 19.160068 1.000000
v 39.433801 21.678915 1.000000
v 37.994757 24.112206 1.000000
v 36.405765 26.450336 1.000000
v 34.673096 28.684080 1.000000
v 32.803588 30.804620 1.000000
v 30.804620 32.803588 1.000000
v 28.684080 34.673096 1.000000
v 26.450336 36.405765 1.000000
v 24.112206 37.994757 1.000000
v 21.678915 39.433801 1.000000
v 19.160068 40.717217 1.000000
v 16.565605 41.839942 1.000000
v 13.905765 42.797543 1.000000
v 11.191045 43.586242 1.000000
v 8.432159 44.202926 1.000000
v 5.639996 44.645162 1.000000
v 2.825573 44.911203 1.000000
v 0.000000 45.000000 1.000000
v -2.825573 44.911203 1.000000
v -5.639996 44.645162 1.000000
v -8.432159 44.202926 1.000000
v -11.191045 43.586242 1.000000
v -13.905765 42.797543 1.000000
v -16.565605 41.839942 1.000000
v -19.160068 40.717217 1.000000
v -21.678915 39.433801 1.000000
v -24.112206 37.994757 1.000000
v -26.450336 36.405765 1.000000
v -28.684080 34.673096 1.000000
v -30.804620 32.803588 1.000000
v -32.803588 30.804620 1.000000
v -34.673096 28.684080 1.000000
v -36.405765 26.450336 1.000000
v -37.994757 24.112206 1.000000
v -39.433801 21.678915 1.000000
v -40.717217 19.160068 1.000000
v -41.839942 16.565605 1.000000
v -42.797543 13.905765 1.000000
v -43.586242 11.191045 1.000000
v -44.202926 8.432159 1.000000
v -44.645162 5.639996 1.000000
v -44.911203 2.825573 1.000000
v -45.000000 -0.000000 0.000000
v -44.911203 2.825573 0.000000
v -44.645162 5.639996 0.000000
v -44.202926 8.432159 0.000000
v -43.586242 11.191045 0.000000
v -42.797543 13.905765 0.000000
v -41.839942 16.565605 0.000000
v -40.717217 19.160068 0.000000
v -39.433801 21.678915 0.000000
v -37.994757 24.112206 0.000000
v -36.405765 26.450336 0.000000
v -34.673096 28.684080 0.000000
v -32.803588 30.804620 0.000000
v -30.804620 32.803588 0.000000
v -28.684080 34.673096 0.000000
v -26.450336 36.405765 0.000000
v -24.112206 37.994757 0.000000
v -21.678915 39.433801 0.000000
v -19.160068 40.717217 0.000000
v -16.565605 41.839942 0.000000
v -13.905765 42.797543 0.000000
v -11.191045 43.586242 0.000000
v -8.432159 44.202926 0.000000
v -5.639996 44.645162 0.000000
v -2.825573 44.911203 0.000000
v 0.000000 45.000000 0.000000
v 2.825573 44.911203 0.000000
v 5.639996 44.645162 0.000000
v 8.432159 44.202926 0.000000
v 11.191045 43.586242 0.000000
v 13.905765 42.797543 0.000000
v 16.565605 41.839942 0.000000
v 19.160068 40.717217 0.000000
v 21.678915 39.433801 0.000000
v 24.112206 37.994757 0.000000
v 26.450336 36.405765 0.000000
v 28.684080 34.673096 0.000000
v 30.804620 32.803588 0.000000
v 32.803588 30.804620 0.000000
v 34.673096 28.684080 0.000000
v 36.405765 26.450336 0.000000
v 37.994757 24.112206 0.000000
v 39.433801 21.678915 0.000000
v 40.717217 19.160068 0.000000
v 41.839942 16.565605 0.000000
v 42.797543 13.905765 0.000000
v 43.586242 11.191045 0.000000
v 44.202926 8.432159 0.000000
v 44.645162 5.639996 0.000000
v 44.911203 2.825573 0.000000
v 45.000000 -0.000000 0.000000
v 44.911203 -2.825573 0.000000
v 44.645162 -5.639996 0.000000
v 44.202926 -8.432159 0.000000
v 43.586242 -11.191045 0.000000
v 42.797543 -13.905765 0.000000
v 41.839942 -16.565605 0.000000
v 40.717217 -19.160068 0.000000
v 39.433801 -21.678915 0.000000
v 37.994757 -24.112206 0.000000
v 36.405765 -26.450336 0.000000
v 34.673096 -28.684080 0.000000
v 32.803588 -30.804620 0.000000
v 30.804620 -32.803588 0.000000
v 28.684080 -34.673096 0.000000
v 26.450336 -36.405765 0.000000
v 24.112206 -37.994757 0.000000
v 21.678915 -39.433801 0.000000
v 19.160068 -40.717217 0.000000
v 16.565605 -41.839942 0.000000
v 13.905765 -42.797543 0.000000
v 11.191045 -43.586242 0.000000
v 8.432159 -44.202926 0.000000
v 5.639996 -44.645162 0.000000
v 2.825573 -44.911203 0.000000
v 0.000000 -45.000000 0.000000
v -2.825573 -44.911203 0.000000
v -5.639996 -44.645162 0.000000
v -8.432159 -44.202926 0.000000
v -11.191045 -43.586242 0.000000
v -13.905765 -42.797543 0.000000
v -16.565605 -41.839942 0.000000
v -19.160068 -40.717217 0.000000
v -21.678915 -39.433801 0.000000
v -24.112206 -37.994757 0.000000
v -26.450336 -36.405765 0.000000
v -28.684080 -34.673096 0.000000
v -30.804620 -32.803588 0.000000
v -32.803588 -30.804620 0.000000
v -34.673096 -28.684080 0.000000
v -36.405765 -26.450336 0.000000
v -37.994757 -24.112206 0.000000
v -39.433801 -21.678915 0.000000
v -40.717217 -19.160068 0.000000
v -41.839942 -16.565605 0.000000
v -42.797543 -13.905765 0.000000
v -43.586242 -11.191045 0.000000
v -44.202926 -8.432159 0.000000
v -44.645162 -5.639996 0.000000
v -44.911203 -2.825573 0.000000
v -50.000000 -0.000000 1.000000
v -49.910506 2.990208 1.000000
v -49.642346 5.969711 1.000000
v -49.196479 8.927845 1.000000
v -48.574502 11.854019 1.000000
v -47.778640 14.737759 1.000000
v -46.811744 17.568741 1.000000
v -45.677273 20.336832 1.000000
v -44.379289 23.032123 1.000000
v -42.922440 25.644964 1.000000
v -41.311939 28.166003 1.000000
v -39.553552 30.586215 1.000000
v -37.653573 32.896936 1.000000
v -35.618805 35.089895 1.000000
v -33.456530 37.157241 1.000000
v -31.174490 39.091574 1.000000
v -28.780853 40.885969 1.000000
v -26.284188 42.534003 1.000000
v -23.693433 44.029777 1.000000
v -21.017861 45.367935 1.000000
v -18.267051 46.543687 1.000000
v -15.450850 47.552826 1.000000
v -12.579338 48.391737 1.000000
v -9.662796 49.057419 1.000000
v -6.711663 49.547488 1.000000
v -3.736505 49.860190 1.000000
v -0.747970 49.994405 1.000000
v 2.243242 49.949653 1.000000
v 5.226423 49.726095 1.000000
v 8.190896 49.324530 1.000000
v 11.126047 48.746396 1.000000
v 14.021369 47.993762 1.000000
v 16.866499 47.069323 1.000000
v 19.651252 45.976389 1.000000
v 22.365657 44.718870 1.000000
v 25.000000 43.301270 1.000000
v 27.544849 41.728663 1.000000
v 29.991095 40.006677 1.000000
v 32.329980 38.141479 1.000000
v 34.553132 36.139743 1.000000
v 36.652594 34.008637 1.000000
v 38.620848 31.755788 1.000000
v 40.450850 29.389263 1.000000
v 42.136048 26.917531 1.000000
v 43.670410 24.349441 1.000000
v 45.048443 21.694187 1.000000
v 46.265215 18.961273 1.000000
v 47.316369 16.160483 1.000000
v 48.198143 13.301842 1.000000
v 48.907380 10.395585 1.000000
v 49.441541 7.452113 1.000000
v 49.798715 4.481965 1.000000
v 49.977622 1.495773 1.000000
v 49.977622 -1.495773 1.000000
v 49.798715 -4.481965 1.000000
v 49.441541 -7.452113 1.000000
v 48.907380 -10.395585 1.000000
v 48.198143 -13.301842 1.000000
v 47.316369 -16.160483 1.000000
v 46.265215 -18.961273 1.000000
v 45.048443 -21.694187 1.000000
v 43.670410 -24.349441 1.000000
v 42.136048 -26.917531 1.000000
v 40.450850 -29.389263 1.000000
v 38.620848 -31.755788 1.000000
v 36.652594 -34.008637 1.000000
v 34.553132 -36.139743 1.000000
v 32.329980 -38.141479 1.000000
v 29.991095 -40.006677 1.000000
v 27.544849 -41.728663 1.000000
v 25.000000 -43.301270 1.000000
v 22.365657 -44.718870 1.000000
v 19.651252 -45.976389 1.000000
v 16.866499 -47.069323 1.000000
v 14.021369 -47.993762 1.000000
v 11.126047 -48.746396 1.000000
v 8.190896 -49.324530 1.000000
v 5.226423 -49.726095 1.000000
v 2.243242 -49.949653 1.000000
v -0.747970 -49.994405 1.000000
v -3.736505 -49.860190 1.000000
v -6.711663 -49.547488 1.000000
v -9.662796 -49.057419 1.000000
v -12.579338 -48.391737 1.000000
v -15.450850 -47.552826 1.000000
v -18.267051 -46.543687 1.000000
v -21.017861 -45.367935 1.000000
v -23.693433 -44.029777 1.000000
v -26.284188 -42.534003 1.000000
v -28.780853 -40.885969 1.000000
v -31.174490 -39.091574 1.000000
v -33.456530 -37.157241 1.000000
v -35.618805 -35.089895 1.000000
v -37.653573 -32.896936 1.000000
v -39.553552 -30.586215 1.000000
v -41.311939 -28.166003 1.000000
v -42.922440 -25.644964 1.000000
v -44.379289 -23.032123 1.000000
v -45.677273 -20.336832 1.000000
v -46.811744 -17.568741 1.000000
v -47.778640 -14.737759 1.000000
v -48.574502 -11.854019 1.000000
v -49.196479 -8.927845 1.000000
v -49.642346 -5.969711 1.000000
v -49.910506 -2.990208 1.000000
v -50.000000 -0.000000 0.000000
v -49.910506 -2.990208 0.000000
v -49.642346 -5.969711 0.000000
v -49.196479 -8.927845 0.000000
v -48.574502 -11.854019 0.000000
v -47.778640 -14.737759 0.000000
v -46.811744 -17.568741 0.000000
v -45.677273 -20.336832 0.000000
v -44.379289 -23.032123 0.000000
v -42.922440 -25.644964 0.000000
v -41.311939 -28.166003 0.000000
v -39.553552 -30.586215 0.000000
v -37.653573 -32.896936 0.000000
v -35.618805 -35.089895 0.000000
v -33.456530 -37.157241 0.000000
v -31.174490 -39.091574 0.000000
v -28.780853 -40.885969 0.000000
v -26.284188 -42.534003 0.000000
v -23.693433 -44.029777 0.000000
v -21.017861 -45.367935 0.000000
v -18.267051 -46.543687 0.000000
v -15.450850 -47.552826 0.000000
v -12.579338 -48.391737 0.000000
v -9.662796 -49.057419 0.000000
v -6.711663 -49.547488 0.000000
v -3.736505 -49.860190 0.000000
v -0.747970 -49.994405 0.000000
v 2.243242 -49.949653 0.000000
v 5.226423 -49.726095 0.000000
v 8.190896 -49.324530 0.000000
v 11.126047 -48.746396 0.000000
v 14.021369 -47.993762 0.000000
v 16.866499 -47.069323 0.000000
v 19.651252 -45.976389 0.000000
v 22.365657 -44.718870 0.000000
v 25.000000 -43.301270 0.000000
v 27.544849 -41.728663 0.000000
v 29.991095 -40.006677 0.000000
v 32.329980 -38.141479 0.000000
v 34.553132 -36.139743 0.000000
v 36.652594 -34.008637 0.000000
v 38.620848 -31.755788 0.000000
v 40.450850 -29.389263 0.000000
v 42.136048 -26.917531 0.000000
v 43.670410 -24.349441 0.000000
v 45.048443 -21.694187 0.000000
v 46.265215 -18.961273 0.000000
v 47.316369 -16.160483 0.000000
v 48.198143 -13.301842 0.000000
v 48.907380 -10.395585 0.000000
v 49.441541 -7.452113 0.000000
v 49.798715 -4.481965 0.000000
v 49.977622 -1.495773 0.000000
v 49.977622 1.495773 0.000000
v 49.798715 4.481965 0.000000
v 49.441541 7.452113 0.000000
v 48.907380 10.395585 0.000000
v 48.198143 13.301842 0.000000
v 47.316369 16.160483 0.000000
v 46.265215 18.961273 0.000000
v 45.048443 21.694187 0.000000
v 43.670410 24.349441 0.000000
v 42.136048 26.917531 0.000000
v 40.450850 29.389263 0.000000
v 38.620848 31.755788 0.000000
v 36.652594 34.008637 0.000000
v 34.553132 36.139743 0.000000
v 32.329980 38.141479 0.000000
v 29.991095 40.006677 0.000000
v 27.544849 41.728663 0.000000
v 25.000000 43.301270 0.000000
v 22.365657 44.718870 0.000000
v 19.651252 45.976389 0.000000
v 16.866499 47.069323 0.000000
v 14.021369 47.993762 0.000000
v 11.126047 48.746396 0.000000
v 8.190896 49.324530 0.000000
v 5.226423 49.726095 0.000000
v 2.243242 49.949653 0.000000
v -0.747970 49.994405 0.000000
v -3.736505 49.860190 0.000000
v -6.711663 49.547488 0.000000
v -9.662796 49.057419 0.000000
v -12.579338 48.391737 0.000000
v -15.450850 47.552826 0.000000
v -18.267051 46.543687 0.000000
v -21.017861 45.367935 0.000000
v -23.693433 44.029777 0.000000
v -26.284188 42.534003 0.000000
v -28.780853 40.885969 0.000000
v -31.174490 39.091574 0.000000
v -33.456530 37.157241 0.000000
v -35.618805 35.089895 0.000000
v -37.653573 32.896936 0.000000
v -39.553552 30.586215 0.000000
v -41.311939 28.166003 0.000000
v -42.922440 25.644964 0.000000
v -44.379289 23.032123 0.000000
v -45.677273 20.336832 0.000000
v -46.811744 17.568741 0.000000
v -47.778640 14.737759 0.000000
v -48.574502 11.854019 0.000000
v -49.196479 8.927845 0.000000
v -49.642346 5.969711 0.000000
v -49.910506 2.990208 0.000000
vt 0.100000 -13.854424 0.000000
vt 0.000000 -13.854424 0.000000
vt 0.100000 -14.137167 0.000000
vt 0.000000 -14.137167 0.000000
vt 0.100000 14.137167 0.000000
vt 0.000000 14.137167 0.000000
vt 0.100000 13.854424 0.000000
vt 0.000000 13.854424 0.000000
vt 0.100000 13.571680 0.000000
vt 0.000000 13.571680 0.000000
vt 0.100000 13.288937 0.000000
vt 0.000000 13.288937 0.000000
vt 0.100000 13.006194 0.000000
vt 0.000000 13.006194 0.000000
vt 0.100000 12.723450 0.000000
vt 0.000000 12.723450 0.000000
vt 0.100000 12.440707 0.000000
vt 0.000000 12.440707 0.000000
vt 0.100000 12.157964 0.000000
vt 0.000000 12.157964 0.000000
vt 0.100000 11.875220 0.000000
vt 0.000000 11.875220 0.000000
vt 0.100000 11.592477 0.000000
vt 0.000000 11.592477 0.000000
vt 0.100000 11.309734 0.000000
vt 0.000000 11.309734 0.000000
vt 0.100000 11.026990 0.000000
vt 0.000000 11.026990 0.000000
vt 0.100000 10.744247 0.000000
vt 0.000000 10.744247 0.000000
vt 0.100000 10.461504 0.000000
vt 0.000000 10.461504 0.000000
vt 0.100000 10.178760 0.000000
vt 0.000000 10.178760 0.000000
vt 0.100000 9.896017 0.000000
vt 0.000000 9.896017 0.000000
vt 0.100000 9.613274 0.000000
vt 0.000000 9.613274 0.000000
vt 0.100000 9.330530 0.000000
vt 0.000000 9.330530 0.000000
vt 0.100000 9.047787 0.000000
vt 0.000000 9.047787 0.000000
vt 0.100000 8.765043 0.000000
vt 0.000000 8.765043 0.000000
vt 0.100000 8.482300 0.000000
vt 0.000000 8.482300 0.000000
vt 0.100000 8.199557 0.000000
vt 0.000000 8.199557 0.000000
vt 0.100000 7.916813 0.000000
vt 0.000000 7.916813 0.000000
vt 0.100000 7.634070 0.000000
vt 0.000000 7.634070 0.000000
vt 0.100000 7.351327 0.000000
vt 0.000000 7.351327 0.000000
vt 0.100000 7.068583 0.000000
vt 0.000000 7.068583 0.000000
vt 0.100000 6.785840 0.000000
vt 0.000000 6.785840 0.000000
vt 0.100000 6.503097 0.000000
vt 0.000000 6.503097 0.000000
vt 0.100000 6.220353 0.000000
vt 0.000000 6.220353 0.000000
vt 0.100000 5.937610 0.000000
vt 0.000000 5.937610 0.000000
vt 0.100000 5.654867 0.000000
vt 0.000000 5.654867 0.000000
vt 0.100000 5.372123 0.000000
vt 0.000000 5.372123 0.000000
vt 0.100000 5.089380 0.000000
vt 0.000000 5.089380 0.000000
vt 0.100000 4.806637 0.000000
vt 0.000000 4.806637 0.000000
vt 0.100000 4.523893 0.000000
vt 0.000000 4.523893 0.000000
vt 0.100000 4.241150 0.000000
vt 0.000000 4.241150 0.000000
vt 0.100000 3.958407 0.000000
vt 0.000000 3.958407 0.000000
vt 0.100000 3.675663 0.000000
vt 0.000000 3.675663 0.000000
vt 0.100000 3.392920 0.000000
vt 0.000000 3.392920 0.000000
vt 0.100000 3.110177 0.000000
vt 0.000000 3.110177 0.000000
vt 0.100000 2.827433 0.000000
vt 0.000000 2.827433 0.000000
vt 0.100000 2.544690 0.000000
vt 0.000000 2.544690 0.000000
vt 0.100000 2.261947 0.000000
vt 0.000000 2.261947 0.000000
vt 0.100000 1.979203 0.000000
vt 0.000000 1.979203 0.000000
vt 0.100000 1.696460 0.000000
vt 0.000000 1.696460 0.000000
vt 0.100000 1.413717 0.000000
vt 0.000000 1.413717 0.000000
vt 0.100000 1.130973 0.000000
vt -0.000000 1.130973 0.000000
vt 0.100000 0.848230 0.000000
vt 0.000000 0.848230 0.000000
vt 0.100000 0.565487 0.000000
vt 0.000000 0.565487 0.000000
vt 0.100000 0.282743 0.000000
vt 0.000000 0.282743 0.000000
vt 0.100000 -0.000000 0.000000
vt 0.000000 -0.000000 0.000000
vt 0.100000 -0.282743 0.000000
vt 0.000000 -0.282743 0.000000
vt 0.100000 -0.565487 0.000000
vt 0.000000 -0.565487 0.000000
vt 0.100000 -0.848230 0.000000
vt 0.000000 -0.848230 0.000000
vt 0.100000 -1.130973 0.000000
vt 0.000000 -1.130973 0.000000
vt 0.100000 -1.413717 0.000000
vt 0.000000 -1.413717 0.000000
vt 0.100000 -1.696460 0.000000
vt 0.000000 -1.696460 0.000000
vt 0.100000 -1.979203 0.000000
vt 0.000000 -1.979203 0.000000
vt 0.100000 -2.261947 0.000000
vt 0.000000 -2.261947 0.000000
vt 0.100000 -2.544690 0.000000
vt 0.000000 -2.544690 0.000000
vt 0.100000 -2.827433 0.000000
vt 0.000000 -2.827433 0.000000
vt 0.100000 -3.110177 0.000000
vt 0.000000 -3.110177 0.000000
vt 0.100000 -3.392920 0.000000
vt -0.000000 -3.392920 0.000000
vt 0.100000 -3.675663 0.000000
vt 0.000000 -3.675663 0.000000
vt 0.100000 -3.958407 0.000000
vt 0.000000 -3.958407 0.000000
vt 0.100000 -4.241150 0.000000
vt 0.000000 -4.241150 0.000000
vt 0.100000 -4.523893 0.000000
vt 0.000000 -4.523893 0.000000
vt 0.100000 -4.806637 0.000000
vt 0.000000 -4.806637 0.000000
vt 0.100000 -5.089380 0.000000
vt 0.000000 -5.089380 0.000000
vt 0.100000 -5.372123 0.000000
vt 0.000000 -5.372123 0.000000
vt 0.100000 -5.654867 0.000000
vt 0.000000 -5.654867 0.000000
vt 0.100000 -5.937610 0.000000
vt 0.000000 -5.937610 0.000000
vt 0.100000 -6.220353 0.000000
vt 0.000000 -6.220353 0.000000
vt 0.100000 -6.503097 0.000000
vt 0.000000 -6.503097 0.000000
vt 0.100000 -6.785840 0.000000
vt 0.000000 -6.785840 0.000000
vt 0.100000 -7.068583 0.000000
vt 0.000000 -7.068583 0.000000
vt 0.100000 -7.351327 0.000000
vt 0.000000 -7.351327 0.000000
vt 0.100000 -7.634070 0.000000
vt 0.000000 -7.634070 0.000000
vt 0.100000 -7.916813 0.000000
vt 0.000000 -7.916813 0.000000
vt 0.100000 -8.199557 0.000000
vt 0.000000 -8.199557 0.000000
vt 0.100000 -8.482300 0.000000
vt 0.000000 -8.482300 0.000000
vt 0.100000 -8.765043 0.000000
vt 0.000000 -8.765043 0.000000
vt 0.100000 -9.047787 0.000000
vt 0.000000 -9.047787 0.000000
vt 0.100000 -9.330530 0.000000
vt 0.000000 -9.330530 0.000000
vt 0.100000 -9.613274 0.000000
vt 0.000000 -9.613274 0.000000
vt 0.100000 -9.896017 0.000000
vt 0.000000 -9.896017 0.000000
vt 0.100000 -10.178760 0.000000
vt 0.000000 -10.178760 0.000000
vt 0.100000 -10.461504 0.000000
vt 0.000000 -10.461504 0.000000
vt 0.100000 -10.744247 0.000000
vt 0.000000 -10.744247 0.000000
vt 0.100000 -11.026990 0.000000
vt 0.000000 -11.026990 0.000000
vt 0.100000 -11.309734 0.000000
vt 0.000000 -11.309734 0.000000
vt 0.100000 -11.592477 0.000000
vt 0.000000 -11.592477 0.000000
vt 0.100000 -11.875220 0.000000
vt 0.000000 -11.875220 0.000000
vt 0.100000 -12.157964 0.000000
vt 0.000000 -12.157964 0.000000
vt 0.100000 -12.440707 0.000000
vt 0.000000 -12.440707 0.000000
vt 0.100000 -12.723450 0.000000
vt 0.000000 -12.723450 0.000000
vt 0.100000 -13.006194 0.000000
vt 0.000000 -13.006194 0.000000
vt 0.100000 -13.288937 0.000000
vt 0.000000 -13.288937 0.000000
vt 0.100000 -13.571680 0.000000
vt 0.000000 -13.571680 0.000000
vt -0.100000 15.408764 0.000000
vt -0.000000 15.408764 0.000000
vt -0.100000 15.707963 0.000000
vt -0.000000 15.707963 0.000000
vt -0.100000 -15.707963 0.000000
vt -0.000000 -15.707963 0.000000
vt -0.100000 -15.408764 0.000000
vt -0.000000 -15.408764 0.000000
vt -0.100000 -15.109565 0.000000
vt -0.000000 -15.109565 0.000000
vt -0.100000 -14.810365 0.000000
vt -0.000000 -14.810365 0.000000
vt -0.100000 -14.511166 0.000000
vt -0.000000 -14.511166 0.000000
vt -0.100000 -14.211967 0.000000
vt -0.000000 -14.211967 0.000000
vt -0.100000 -13.912767 0.000000
vt -0.000000 -13.912767 0.000000
vt -0.100000 -13.613568 0.000000
vt -0.000000 -13.613568 0.000000
vt -0.100000 -13.314369 0.000000
vt -0.000000 -13.314369 0.000000
vt -0.100000 -13.015170 0.000000
vt -0.000000 -13.015170 0.000000
vt -0.100000 -12.715970 0.000000
vt -0.000000 -12.715970 0.000000
vt -0.100000 -12.416771 0.000000
vt -0.000000 -12.416771 0.000000
vt -0.100000 -12.117572 0.000000
vt -0.000000 -12.117572 0.000000
vt -0.100000 -11.818372 0.000000
vt -0.000000 -11.818372 0.000000
vt -0.100000 -11.519173 0.000000
vt -0.000000 -11.519173 0.000000
vt -0.100000 -11.219974 0.000000
vt -0.000000 -11.219974 0.000000
vt -0.100000 -10.920774 0.000000
vt -0.000000 -10.920774 0.000000
vt -0.100000 -10.621575 0.000000
vt -0.000000 -10.621575 0.000000
vt -0.100000 -10.322376 0.000000
vt -0.000000 -10.322376 0.000000
vt -0.100000 -10.023177 0.000000
vt -0.000000 -10.023177 0.000000
vt -0.100000 -9.723977 0.000000
vt -0.000000 -9.723977 0.000000
vt -0.100000 -9.424778 0.000000
vt -0.000000 -9.424778 0.000000
vt -0.100000 -9.125579 0.000000
vt -0.000000 -9.125579 0.000000
vt -0.100000 -8.826379 0.000000
vt -0.000000 -8.826379 0.000000
vt -0.100000 -8.527180 0.000000
vt -0.000000 -8.527180 0.000000
vt -0.100000 -8.227981 0.000000
vt -0.000000 -8.227981 0.000000
vt -0.100000 -7.928781 0.000000
vt -0.000000 -7.928781 0.000000
vt -0.100000 -7.629582 0.000000
vt -0.000000 -7.629582 0.000000
vt -0.100000 -7.330383 0.000000
vt -0.000000 -7.330383 0.000000
vt -0.100000 -7.031184 0.000000
vt -0.000000 -7.031184 0.000000
vt -0.100000 -6.731984 0.000000
vt -0.000000 -6.731984 0.000000
vt -0.100000 -6.432785 0.000000
vt -0.000000 -6.432785 0.000000
vt -0.100000 -6.133586 0.000000
vt -0.000000 -6.133586 0.000000
vt -0.100000 -5.834386 0.000000
vt -0.000000 -5.834386 0.000000
vt -0.100000 -5.535187 0.000000
vt -0.000000 -5.535187 0.000000
vt -0.100000 -5.235988 0.000000
vt -0.000000 -5.235988 0.000000
vt -0.100000 -4.936788 0.000000
vt -0.000000 -4.936788 0.000000
vt -0.100000 -4.637589 0.000000
vt -0.000000 -4.637589 0.000000
vt -0.100000 -4.338390 0.000000
vt -0.000000 -4.338390 0.000000
vt -0.100000 -4.039191 0.000000
vt -0.000000 -4.039191 0.000000
vt -0.100000 -3.739991 0.000000
vt -0.000000 -3.739991 0.000000
vt -0.100000 -3.440792 0.000000
vt -0.000000 -3.440792 0.000000
vt -0.100000 -3.141593 0.000000
vt -0.000000 -3.141593 0.000000
vt -0.100000 -2.842393 0.000000
vt -0.000000 -2.842393 0.000000
vt -0.100000 -2.543194 0.000000
vt -0.000000 -2.543194 0.000000
vt -0.100000 -2.243995 0.000000
vt -0.000000 -2.243995 0.000000
vt -0.100000 -1.944795 0.000000
vt -0.000000 -1.944795 0.000000
vt -0.100000 -1.645596 0.000000
vt -0.000000 -1.645596 0.000000
vt -0.100000 -1.346397 0.000000
vt -0.000000 -1.346397 0.000000
vt -0.100000 -1.047198 0.000000
vt -0.000000 -1.047198 0.000000
vt -0.100000 -0.747998 0.000000
vt -0.000000 -0.747998 0.000000
vt -0.100000 -0.448799 0.000000
vt -0.000000 -0.448799 0.000000
vt -0.100000 -0.149600 0.000000
vt -0.000000 -0.149600 0.000000
vt -0.100000 0.149600 0.000000
vt -0.000000 0.149600 0.000000
vt -0.100000 0.448799 0.000000
vt -0.000000 0.448799 0.000000
vt -0.100000 0.747998 0.000000
vt -0.000000 0.747998 0.000000
vt -0.100000 1.047198 0.000000
vt -0.000000 1.047198 0.000000
vt -0.100000 1.346397 0.000000
vt -0.000000 1.346397 0.000000
vt -0.100000 1.645596 0.000000
vt -0.000000 1.645596 0.000000
vt -0.100000 1.944795 0.000000
vt -0.000000 1.944795 0.000000
vt -0.100000 2.243995 0.000000
vt -0.000000 2.243995 0.000000
vt -0.100000 2.543194 0.000000
vt -0.000000 2.543194 0.000000
vt -0.100000 2.842393 0.000000
vt -0.000000 2.842393 0.000000
vt -0.100000 3.141593 0.000000
vt -0.000000 3.141593 0.000000
vt -0.100000 3.440792 0.000000
vt -0.000000 3.440792 0.000000
vt -0.100000 3.739991 0.000000
vt -0.000000 3.739991 0.000000
vt -0.100000 4.039191 0.000000
vt -0.000000 4.039191 0.000000
vt -0.100000 4.338390 0.000000
vt -0.000000 4.338390 0.000000
vt -0.100000 4.637589 0.000000
vt -0.000000 4.637589 0.000000
vt -0.100000 4.936788 0.000000
vt -0.000000 4.936788 0.000000
vt -0.100000 5.235988 0.000000
vt -0.000000 5.235988 0.000000
vt -0.100000 5.535187 0.000000
vt -0.000000 5.535187 0.000000
vt -0.100000 5.834386 0.000000
vt -0.000000 5.834386 0.000000
vt -0.100000 6.133586 0.000000
vt -0.000000 6.133586 0.000000
vt -0.100000 6.432785 0.000000
vt -0.000000 6.432785 0.000000
vt -0.100000 6.731984 0.000000
vt -0.000000 6.731984 0.000000
vt -0.100000 7.031184 0.000000
vt -0.000000 7.031184 0.000000
vt -0.100000 7.330383 0.000000
vt -0.000000 7.330383 0.000000
vt -0.100000 7.629582 0.000000
vt -0.000000 7.629582 0.000000
vt -0.100000 7.928781 0.000000
vt -0.000000 7.928781 0.000000
vt -0.100000 8.227981 0.000000
vt -0.000000 8.227981 0.000000
vt -0.100000 8.527180 0.000000
vt -0.000000 8.527180 0.000000
vt -0.100000 8.826379 0.000000
vt -0.000000 8.826379 0.000000
vt -0.100000 9.125579 0.000000
vt -0.000000 9.125579 0.000000
vt -0.100000 9.424778 0.000000
vt -0.000000 9.424778 0.000000
vt -0.100000 9.723977 0.000000
vt -0.000000 9.723977 0.000000
vt -0.100000 10.023177 0.000000
vt -0.000000 10.023177 0.000000
vt -0.100000 10.322376 0.000000
vt -0.000000 10.322376 0.000000
vt -0.100000 10.621575 0.000000
vt -0.000000 10.621575 0.000000
vt -0.100000 10.920774 0.000000
vt -0.000000 10.920774 0.000000
vt -0.100000 11.219974 0.000000
vt -0.000000 11.219974 0.000000
vt -0.100000 11.519173 0.000000
vt -0.000000 11.519173 0.000000
vt -0.100000 11.818372 0.000000
vt -0.000000 11.818372 0.000000
vt -0.100000 12.117572 0.000000
vt -0.000000 12.117572 0.000000
vt -0.100000 12.416771 0.000000
vt -0.000000 12.416771 0.000000
vt -0.100000 12.715970 0.000000
vt -0.000000 12.715970 0.000000
vt -0.100000 13.015170 0.000000
vt -0.000000 13.015170 0.000000
vt -0.100000 13.314369 0.000000
vt -0.000000 13.314369 0.000000
vt -0.100000 13.613568 0.000000
vt -0.000000 13.613568 0.000000
vt -0.100000 13.912767 0.000000
vt -0.000000 13.912767 0.000000
vt -0.100000 14.211967 0.000000
vt -0.000000 14.211967 0.000000
vt -0.100000 14.511166 0.000000
vt -0.000000 14.511166 0.000000
vt -0.100000 14.810365 0.000000
vt -0.000000 14.810365 0.000000
vt -0.100000 15.109565 0.000000
vt -0.000000 15.109565 0.000000
vt -4.491120 0.282557 0.000000
vt -4.991051 0.299021 0.000000
vt -4.500000 -0.000000 0.000000
vt -5.000000 -0.000000 0.000000
vt -4.991051 -0.299021 0.000000
vt -4.964235 0.596971 0.000000
vt -4.464516 0.564000 0.000000
vt -4.919648 0.892784 0.000000
vt -4.420293 0.843216 0.000000
vt -4.857450 1.185402 0.000000
vt -4.358624 1.119104 0.000000
vt -4.777864 1.473776 0.000000
vt -4.279754 1.390576 0.000000
vt -4.681174 1.756874 0.000000
vt -4.183994 1.656560 0.000000
vt -4.567727 2.033683 0.000000
vt -4.071722 1.916007 0.000000
vt -4.437929 2.303212 0.000000
vt -3.943380 2.167892 0.000000
vt -4.292244 2.564496 0.000000
vt -3.799476 2.411221 0.000000
vt -4.131194 2.816600 0.000000
vt -3.640576 2.645034 0.000000
vt -3.955355 3.058621 0.000000
vt -3.467310 2.868408 0.000000
vt -3.765357 3.289694 0.000000
vt -3.280359 3.080462 0.000000
vt -3.561880 3.508990 0.000000
vt -3.080462 3.280359 0.000000
vt -3.345653 3.715724 0.000000
vt -2.868408 3.467310 0.000000
vt -3.117449 3.909157 0.000000
vt -2.645034 3.640576 0.000000
vt -2.878085 4.088597 0.000000
vt -2.411221 3.799476 0.000000
vt -2.628419 4.253400 0.000000
vt -2.167892 3.943380 0.000000
vt -2.369343 4.402978 0.000000
vt -1.916007 4.071722 0.000000
vt -2.101786 4.536793 0.000000
vt -1.656560 4.183994 0.000000
vt -1.826705 4.654369 0.000000
vt -1.390576 4.279754 0.000000
vt -1.545085 4.755283 0.000000
vt -1.257934 4.839174 0.000000
vt -1.119104 4.358624 0.000000
vt -0.966280 4.905742 0.000000
vt -0.843216 4.420293 0.000000
vt -0.671166 4.954749 0.000000
vt -0.564000 4.464516 0.000000
vt -0.373650 4.986019 0.000000
vt -0.282557 4.491120 0.000000
vt -0.074797 4.999441 0.000000
vt 0.000000 4.500000 0.000000
vt 0.224324 4.994965 0.000000
vt 0.282557 4.491120 0.000000
vt 0.522642 4.972609 0.000000
vt 0.564000 4.464516 0.000000
vt 0.819090 4.932453 0.000000
vt 0.843216 4.420293 0.000000
vt 1.112605 4.874640 0.000000
vt 1.119104 4.358624 0.000000
vt 1.402137 4.799376 0.000000
vt 1.390576 4.279754 0.000000
vt 1.686650 4.706932 0.000000
vt 1.656560 4.183994 0.000000
vt 1.965125 4.597639 0.000000
vt 1.916007 4.071722 0.000000
vt 2.236566 4.471887 0.000000
vt 2.167892 3.943380 0.000000
vt 2.500000 4.330127 0.000000
vt 2.411221 3.799476 0.000000
vt 2.754485 4.172866 0.000000
vt 2.645034 3.640576 0.000000
vt 2.999109 4.000668 0.000000
vt 2.868408 3.467310 0.000000
vt 3.232998 3.814148 0.000000
vt 3.080462 3.280359 0.000000
vt 3.455313 3.613974 0.000000
vt 3.280359 3.080462 0.000000
vt 3.665259 3.400864 0.000000
vt 3.467310 2.868408 0.000000
vt 3.862085 3.175579 0.000000
vt 3.640576 2.645034 0.000000
vt 4.045085 2.938926 0.000000
vt 4.213605 2.691753 0.000000
vt 3.799476 2.411221 0.000000
vt 4.367041 2.434944 0.000000
vt 3.943380 2.167892 0.000000
vt 4.504844 2.169419 0.000000
vt 4.071722 1.916007 0.000000
vt 4.626522 1.896127 0.000000
vt 4.183994 1.656560 0.000000
vt 4.731637 1.616048 0.000000
vt 4.279754 1.390576 0.000000
vt 4.819814 1.330184 0.000000
vt 4.358624 1.119104 0.000000
vt 4.890738 1.039558 0.000000
vt 4.420293 0.843216 0.000000
vt 4.944154 0.745211 0.000000
vt 4.464516 0.564000 0.000000
vt 4.979871 0.448197 0.000000
vt 4.491120 0.282557 0.000000
vt 4.997762 0.149577 0.000000
vt 4.500000 -0.000000 0.000000
vt 4.997762 -0.149577 0.000000
vt 4.491120 -0.282557 0.000000
vt 4.979871 -0.448197 0.000000
vt 4.464516 -0.564000 0.000000
vt 4.944154 -0.745211 0.000000
vt 4.420293 -0.843216 0.000000
vt 4.890738 -1.039558 0.000000
vt 4.358624 -1.119104 0.000000
vt 4.819814 -1.330184 0.000000
vt 4.279754 -1.390576 0.000000
vt 4.731637 -1.616048 0.000000
vt 4.183994 -1.656560 0.000000
vt 4.626522 -1.896127 0.000000
vt 4.071722 -1.916007 0.000000
vt 4.504844 -2.169419 0.000000
vt 3.943380 -2.167892 0.000000
vt 4.367041 -2.434944 0.000000
vt 3.799476 -2.411221 0.000000
vt 4.213605 -2.691753 0.000000
vt 3.640576 -2.645034 0.000000
vt 4.045085 -2.938926 0.000000
vt 3.862085 -3.175579 0.000000
vt 3.467310 -2.868408 0.000000
vt 3.665259 -3.400864 0.000000
vt 3.280359 -3.080462 0.000000
vt 3.455313 -3.613974 0.000000
vt 3.080462 -3.280359 0.000000
vt 3.232998 -3.814148 0.000000
vt 2.868408 -3.467310 0.000000
vt 2.999109 -4.000668 0.000000
vt 2.645034 -3.640576 0.000000
vt 2.754485 -4.172866 0.000000
vt 2.411221 -3.799476 0.000000
vt 2.500000 -4.330127 0.000000
vt 2.167892 -3.943380 0.000000
vt 2.236566 -4.471887 0.000000
vt 1.916007 -4.071722 0.000000
vt 1.965125 -4.597639 0.000000
vt 1.656560 -4.183994 0.000000
vt 1.686650 -4.706932 0.000000
vt 1.390576 -4.279754 0.000000
vt 1.402137 -4.799376 0.000000
vt 1.119104 -4.358624 0.000000
vt 1.112605 -4.874640 0.000000
vt 0.843216 -4.420293 0.000000
vt 0.819090 -4.932453 0.000000
vt 0.564000 -4.464516 0.000000
vt 0.522642 -4.972609 0.000000
vt 0.282557 -4.491120 0.000000
vt 0.224324 -4.994965 0.000000
vt 0.000000 -4.500000 0.000000
vt -0.074797 -4.999441 0.000000
vt -0.282557 -4.491120 0.000000
vt -0.373650 -4.986019 0.000000
vt -0.564000 -4.464516 0.000000
vt -0.671166 -4.954749 0.000000
vt -0.843216 -4.420293 0.000000
vt -0.966280 -4.905742 0.000000
vt -1.119104 -4.358624 0.000000
vt -1.257934 -4.839174 0.000000
vt -1.390576 -4.279754 0.000000
vt -1.545085 -4.755283 0.000000
vt -1.826705 -4.654369 0.000000
vt -1.656560 -4.183994 0.000000
vt -2.101786 -4.536793 0.000000
vt -1.916007 -4.071722 0.000000
vt -2.369343 -4.402978 0.000000
vt -2.167892 -3.943380 0.000000
vt -2.628419 -4.253400 0.000000
vt -2.411221 -3.799476 0.000000
vt -2.878085 -4.088597 0.000000
vt -2.645034 -3.640576 0.000000
vt -3.117449 -3.909157 0.000000
vt -2.868408 -3.467310 0.000000
vt -3.345653 -3.715724 0.000000
vt -3.080462 -3.280359 0.000000
vt -3.561880 -3.508990 0.000000
vt -3.280359 -3.080462 0.000000
vt -3.765357 -3.289694 0.000000
vt -3.467310 -2.868408 0.000000
vt -3.955355 -3.058621 0.000000
vt -3.640576 -2.645034 0.000000
vt -4.131194 -2.816600 0.000000
vt -3.799476 -2.411221 0.000000
vt -4.292244 -2.564496 0.000000
vt -3.943380 -2.167892 0.000000
vt -4.437929 -2.303212 0.000000
vt -4.071722 -1.916007 0.000000
vt -4.567727 -2.033683 0.000000
vt -4.183994 -1.656560 0.000000
vt -4.681174 -1.756874 0.000000
vt -4.279754 -1.390576 0.000000
vt -4.777864 -1.473776 0.000000
vt -4.358624 -1.119104 0.000000
vt -4.857450 -1.185402 0.000000
vt -4.420293 -0.843216 0.000000
vt -4.919648 -0.892784 0.000000
vt -4.464516 -0.564000 0.000000
vt -4.964235 -0.596971 0.000000
vt -4.491120 -0.282557 0.000000
vt 4.491120 -0.282557 0.000000
vt 4.991051 -0.299021 0.000000
vt 4.500000 -0.000000 0.000000
vt 5.000000 -0.000000 0.000000
vt 4.991051 0.299021 0.000000
vt 4.964235 -0.596971 0.000000
vt 4.464516 -0.564000 0.000000
vt 4.919648 -0.892784 0.000000
vt 4.420293 -0.843216 0.000000
vt 4.857450 -1.185402 0.000000
vt 4.358624 -1.119104 0.000000
vt 4.777864 -1.473776 0.000000
vt 4.279754 -1.390576 0.000000
vt 4.681174 -1.756874 0.000000
vt 4.183994 -1.656560 0.000000
vt 4.567727 -2.033683 0.000000
vt 4.071722 -1.916007 0.000000
vt 4.437929 -2.303212 0.000000
vt 3.943380 -2.167892 0.000000
vt 4.292244 -2.564496 0.000000
vt 3.799476 -2.411221 0.000000
vt 4.131194 -2.816600 0.000000
vt 3.640576 -2.645034 0.000000
vt 3.955355 -3.058621 0.000000
vt 3.467310 -2.868408 0.000000
vt 3.765357 -3.289694 0.000000
vt 3.280359 -3.080462 0.000000
vt 3.561880 -3.508990 0.000000
vt 3.080462 -3.280359 0.000000
vt 3.345653 -3.715724 0.000000
vt 2.868408 -3.467310 0.000000
vt 3.117449 -3.909157 0.000000
vt 2.645034 -3.640576 0.000000
vt 2.878085 -4.088597 0.000000
vt 2.411221 -3.799476 0.000000
vt 2.628419 -4.253400 0.000000
vt 2.167892 -3.943380 0.000000
vt 2.369343 -4.402978 0.000000
vt 1.916007 -4.071722 0.000000
vt 2.101786 -4.536793 0.000000
vt 1.656560 -4.183994 0.000000
vt 1.826705 -4.654369 0.000000
vt 1.390576 -4.279754 0.000000
vt 1.545085 -4.755283 0.000000
vt 1.257934 -4.839174 0.000000
vt 1.119104 -4.358624 0.000000
vt 0.966280 -4.905742 0.000000
vt 0.843216 -4.420293 0.000000
vt 0.671166 -4.954749 0.000000
vt 0.564000 -4.464516 0.000000
vt 0.373650 -4.986019 0.000000
vt 0.282557 -4.491120 0.000000
vt 0.074797 -4.999441 0.000000
vt -0.000000 -4.500000 0.000000
vt -0.224324 -4.994965 0.000000
vt -0.282557 -4.491120 0.000000
vt -0.522642 -4.972609 0.000000
vt -0.564000 -4.464516 0.000000
vt -0.819090 -4.932453 0.000000
vt -0.843216 -4.420293 0.000000
vt -1.112605 -4.874640 0.000000
vt -1.119104 -4.358624 0.000000
vt -1.402137 -4.799376 0.000000
vt -1.390576 -4.279754 0.000000
vt -1.686650 -4.706932 0.000000
vt -1.656560 -4.183994 0.000000
vt -1.965125 -4.597639 0.000000
vt -1.916007 -4.071722 0.000000
vt -2.236566 -4.471887 0.000000
vt -2.167892 -3.943380 0.000000
vt -2.500000 -4.330127 0.000000
vt -2.411221 -3.799476 0.000000
vt -2.754485 -4.172866 0.000000
vt -2.645034 -3.640576 0.000000
vt -2.999109 -4.000668 0.000000
vt -2.868408 -3.467310 0.000000
vt -3.232998 -3.814148 0.000000
vt -3.080462 -3.280359 0.000000
vt -3.455313 -3.613974 0.000000
vt -3.280359 -3.080462 0.000000
vt -3.665259 -3.400864 0.000000
vt -3.467310 -2.868408 0.000000
vt -3.862085 -3.175579 0.000000
vt -3.640576 -2.645034 0.000000
vt -4.045085 -2.938926 0.000000
vt -4.213605 -2.691753 0.000000
vt -3.799476 -2.411221 0.000000
vt -4.367041 -2.434944 0.000000
vt -3.943380 -2.167892 0.000000
vt -4.504844 -2.169419 0.000000
vt -4.071722 -1.916007 0.000000
vt -4.626522 -1.896127 0.000000
vt -4.183994 -1.656560 0.000000
vt -4.731637 -1.616048 0.000000
vt -4.279754 -1.390576 0.000000
vt -4.819814 -1.330184 0.000000
vt -4.358624 -1.119104 0.000000
vt -4.890738 -1.039558 0.000000
vt -4.420293 -0.843216 0.000000
vt -4.944154 -0.745211 0.000000
vt -4.464516 -0.564000 0.000000
vt -4.979871 -0.448197 0.000000
vt -4.491120 -0.282557 0.000000
vt -4.997762 -0.149577 0.000000
vt -4.500000 -0.000000 0.000000
vt -4.997762 0.149577 0.000000
vt -4.491120 0.282557 0.000000
vt -4.979871 0.448197 0.000000
vt -4.464516 0.564000 0.000000
vt -4.944154 0.745211 0.000000
vt -4.420293 0.843216 0.000000
vt -4.890738 1.039558 0.000000
vt -4.358624 1.119104 0.000000
vt -4.819814 1.330184 0.000000
vt -4.279754 1.390576 0.000000
vt -4.731637 1.616048 0.000000
vt -4.183994 1.656560 0.000000
vt -4.626522 1.896127 0.000000
vt -4.071722 1.916007 0.000000
vt -4.504844 2.169419 0.000000
vt -3.943380 2.167892 0.000000
vt -4.367041 2.434944 0.000000
vt -3.799476 2.411221 0.000000
vt -4.213605 2.691753 0.000000
vt -3.640576 2.645034 0.000000
vt -4.045085 2.938926 0.000000
vt -3.862085 3.175579 0.000000
vt -3.467310 2.868408 0.000000
vt -3.665259 3.400864 0.000000
vt -3.280359 3.080462 0.000000
vt -3.455313 3.613974 0.000000
vt -3.080462 3.280359 0.000000
vt -3.232998 3.814148 0.000000
vt -2.868408 3.467310 0.000000
vt -2.999109 4.000668 0.000000
vt -2.645034 3.640576 0.000000
vt -2.754485 4.172866 0.000000
vt -2.411221 3.799476 0.000000
vt -2.500000 4.330127 0.000000
vt -2.167892 3.943380 0.000000
vt -2.236566 4.471887 0.000000
vt -1.916007 4.071722 0.000000
vt -1.965125 4.597639 0.000000
vt -1.656560 4.183994 0.000000
vt -1.686650 4.706932 0.000000
vt -1.390576 4.279754 0.000000
vt -1.402137 4.799376 0.000000
vt -1.119104 4.358624 0.000000
vt -1.112605 4.874640 0.000000
vt -0.843216 4.420293 0.000000
vt -0.819090 4.932453 0.000000
vt -0.564000 4.464516 0.000000
vt -0.522642 4.972609 0.000000
vt -0.282557 4.491120 0.000000
vt -0.224324 4.994965 0.000000
vt -0.000000 4.500000 0.000000
vt 0.074797 4.999441 0.000000
vt 0.282557 4.491120 0.000000
vt 0.373650 4.986019 0.000000
vt 0.564000 4.464516 0.000000
vt 0.671166 4.954749 0.000000
vt 0.843216 4.420293 0.000000
vt 0.966280 4.905742 0.000000
vt 1.119104 4.358624 0.000000
vt 1.257934 4.839174 0.000000
vt 1.390576 4.279754 0.000000
vt 1.545085 4.755283 0.000000
vt 1.826705 4.654369 0.000000
vt 1.656560 4.183994 0.000000
vt 2.101786 4.536793 0.000000
vt 1.916007 4.071722 0.000000
vt 2.369343 4.402978 0.000000
vt 2.167892 3.943380 0.000000
vt 2.628419 4.253400 0.000000
vt 2.411221 3.799476 0.000000
vt 2.878085 4.088597 0.000000
vt 2.645034 3.640576 0.000000
vt 3.117449 3.909157 0.000000
vt 2.868408 3.467310 0.000000
vt 3.345653 3.715724 0.000000
vt 3.080462 3.280359 0.000000
vt 3.561880 3.508990 0.000000
vt 3.280359 3.080462 0.000000
vt 3.765357 3.289694 0.000000
vt 3.467310 2.868408 0.000000
vt 3.955355 3.058621 0.000000
vt 3.640576 2.645034 0.000000
vt 4.131194 2.816600 0.000000
vt 3.799476 2.411221 0.000000
vt 4.292244 2.564496 0.000000
vt 3.943380 2.167892 0.000000
vt 4.437929 2.303212 0.000000
vt 4.071722 1.916007 0.000000
vt 4.567727 2.033683 0.000000
vt 4.183994 1.656560 0.000000
vt 4.681174 1.756874 0.000000
vt 4.279754 1.390576 0.000000
vt 4.777864 1.473776 0.000000
vt 4.358624 1.119104 0.000000
vt 4.857450 1.185402 0.000000
vt 4.420293 0.843216 0.000000
vt 4.919648 0.892784 0.000000
vt 4.464516 0.564000 0.000000
vt 4.964235 0.596971 0.000000
vt 4.491120 0.282557 0.000000
vn 0.099803 0.006279 0.000000
vn 0.099803 0.006279 0.000000
vn 0.100000 0.000000 0.000000
vn 0.100000 0.000000 0.000000
vn 0.099803 -0.006279 0.000000
vn 0.099803 -0.006279 0.000000
vn 0.099211 -0.012533 0.000000
vn 0.099211 -0.012533 0.000000
vn 0.098229 -0.018738 0.000000
vn 0.098229 -0.018738 0.000000
vn 0.096858 -0.024869 0.000000
vn 0.096858 -0.024869 0.000000
vn 0.095106 -0.030902 0.000000
vn 0.095106 -0.030902 0.000000
vn 0.092978 -0.036812 0.000000
vn 0.092978 -0.036812 0.000000
vn 0.090483 -0.042578 0.000000
vn 0.090483 -0.042578 0.000000
vn 0.087631 -0.048175 0.000000
vn 0.087631 -0.048175 0.000000
vn 0.084433 -0.053583 0.000000
vn 0.084433 -0.053583 0.000000
vn 0.080902 -0.058779 0.000000
vn 0.080902 -0.058779 0.000000
vn 0.077051 -0.063742 0.000000
vn 0.077051 -0.063742 0.000000
vn 0.072897 -0.068455 0.000000
vn 0.072897 -0.068455 0.000000
vn 0.068455 -0.072897 0.000000
vn 0.068455 -0.072897 0.000000
vn 0.063742 -0.077051 0.000000
vn 0.063742 -0.077051 0.000000
vn 0.058779 -0.080902 0.000000
vn 0.058779 -0.080902 0.000000
vn 0.053583 -0.084433 0.000000
vn 0.053583 -0.084433 0.000000
vn 0.048175 -0.087631 0.000000
vn 0.048175 -0.087631 0.000000
vn 0.042578 -0.090483 0.000000
vn 0.042578 -0.090483 0.000000
vn 0.036812 -0.092978 0.000000
vn 0.036812 -0.092978 0.000000
vn 0.030902 -0.095106 0.000000
vn 0.030902 -0.095106 0.000000
vn 0.024869 -0.096858 0.000000
vn 0.024869 -0.096858 0.000000
vn 0.018738 -0.098229 0.000000
vn 0.018738 -0.098229 0.000000
vn 0.012533 -0.099211 0.000000
vn 0.012533 -0.099211 0.000000
vn 0.006279 -0.099803 0.000000
vn 0.006279 -0.099803 0.000000
vn -0.000000 -0.100000 0.000000
vn -0.000000 -0.100000 0.000000
vn -0.006279 -0.099803 0.000000
vn -0.006279 -0.099803 0.000000
vn -0.012533 -0.099211 0.000000
vn -0.012533 -0.099211 0.000000
vn -0.018738 -0.098229 0.000000
vn -0.018738 -0.098229 0.000000
vn -0.024869 -0.096858 0.000000
vn -0.024869 -0.096858 0.000000
vn -0.030902 -0.095106 0.000000
vn -0.030902 -0.095106 0.000000
vn -0.036812 -0.092978 0.000000
vn -0.036812 -0.092978 0.000000
vn -0.042578 -0.090483 0.000000
vn -0.042578 -0.090483 0.000000
vn -0.048175 -0.087631 0.000000
vn -0.048175 -0.087631 0.000000
vn -0.053583 -0.084433 0.000000
vn -0.053583 -0.084433 0.000000
vn -0.058779 -0.080902 0.000000
vn -0.058779 -0.080902 0.000000
vn -0.063742 -0.077051 0.000000
vn -0.063742 -0.077051 0.000000
vn -0.068455 -0.072897 0.000000
vn -0.068455 -0.072897 0.000000
vn -0.072897 -0.068455 0.000000
vn -0.072897 -0.068455 0.000000
vn -0.077051 -0.063742 0.000000
vn -0.077051 -0.063742 0.000000
vn -0.080902 -0.058779 0.000000
vn -0.080902 -0.058779 0.000000
vn -0.084433 -0.053583 0.000000
vn -0.084433 -0.053583 0.000000
vn -0.087631 -0.048175 0.000000
vn -0.087631 -0.048175 0.000000
vn -0.090483 -0.042578 0.000000
vn -0.090483 -0.042578 0.000000
vn -0.092978 -0.036812 0.000000
vn -0.092978 -0.036812 0.000000
vn -0.095106 -0.030902 0.000000
vn -0.095106 -0.030902 0.000000
vn -0.096858 -0.024869 0.000000
vn -0.096858 -0.024869 0.000000
vn -0.098229 -0.018738 0.000000
vn -0.098229 -0.018738 0.000000
vn -0.099211 -0.012533 0.000000
vn -0.099211 -0.012533 0.000000
vn -0.099803 -0.006279 0.000000
vn -0.099803 -0.006279 0.000000
vn -0.100000 0.000000 0.000000
vn -0.100000 0.000000 0.000000
vn -0.099803 0.006279 0.000000
vn -0.099803 0.006279 0.000000
vn -0.099211 0.012533 0.000000
vn -0.099211 0.012533 0.000000
vn -0.098229 0.018738 0.000000
vn -0.098229 0.018738 0.000000
vn -0.096858 0.024869 0.000000
vn -0.096858 0.024869 0.000000
vn -0.095106 0.030902 0.000000
vn -0.095106 0.030902 0.000000
vn -0.092978 0.036812 0.000000
vn -0.092978 0.036812 0.000000
vn -0.090483 0.042578 0.000000
vn -0.090483 0.042578 0.000000
vn -0.087631 0.048175 0.000000
vn -0.087631 0.048175 0.000000
vn -0.084433 0.053583 0.000000
vn -0.084433 0.053583 0.000000
vn -0.080902 0.058779 0.000000
vn -0.080902 0.058779 0.000000
vn -0.077051 0.063742 0.000000
vn -0.077051 0.063742 0.000000
vn -0.072897 0.068455 0.000000
vn -0.072897 0.068455 0.000000
vn -0.068455 0.072897 0.000000
vn -0.068455 0.072897 0.000000
vn -0.063742 0.077051 0.000000
vn -0.063742 0.077051 0.000000
vn -0.058779 0.080902 0.000000
vn -0.058779 0.080902 0.000000
vn -0.053583 0.084433 0.000000
vn -0.053583 0.084433 0.000000
vn -0.048175 0.087631 0.000000
vn -0.048175 0.087631 0.000000
vn -0.042578 0.090483 0.000000
vn -0.042578 0.090483 0.000000
vn -0.036812 0.092978 0.000000
vn -0.036812 0.092978 0.000000
vn -0.030902 0.095106 0.000000
vn -0.030902 0.095106 0.000000
vn -0.024869 0.096858 0.000000
vn -0.024869 0.096858 0.000000
vn -0.018738 0.098229 0.000000
vn -0.018738 0.098229 0.000000
vn -0.012533 0.099211 0.000000
vn -0.012533 0.099211 0.000000
vn -0.006279 0.099803 0.000000
vn -0.006279 0.099803 0.000000
vn -0.000000 0.100000 0.000000
vn -0.000000 0.100000 0.000000
vn 0.006279 0.099803 0.000000
vn 0.006279 0.099803 0.000000
vn 0.012533 0.099211 0.000000
vn 0.012533 0.099211 0.000000
vn 0.018738 0.098229 0.000000
vn 0.018738 0.098229 0.000000
vn 0.024869 0.096858 0.000000
vn 0.024869 0.096858 0.000000
vn 0.030902 0.095106 0.000000
vn 0.030902 0.095106 0.000000
vn 0.036812 0.092978 0.000000
vn 0.036812 0.092978 0.000000
vn 0.042578 0.090483 0.000000
vn 0.042578 0.090483 0.000000
vn 0.048175 0.087631 0.000000
vn 0.048175 0.087631 0.000000
vn 0.053583 0.084433 0.000000
vn 0.053583 0.084433 0.000000
vn 0.058779 0.080902 0.000000
vn 0.058779 0.080902 0.000000
vn 0.063742 0.077051 0.000000
vn 0.063742 0.077051 0.000000
vn 0.068455 0.072897 0.000000
vn 0.068455 0.072897 0.000000
vn 0.072897 0.068455 0.000000
vn 0.072897 0.068455 0.000000
vn 0.077051 0.063742 0.000000
vn 0.077051 0.063742 0.000000
vn 0.080902 0.058779 0.000000
vn 0.080902 0.058779 0.000000
vn 0.084433 0.053583 0.000000
vn 0.084433 0.053583 0.000000
vn 0.087631 0.048175 0.000000
vn 0.087631 0.048175 0.000000
vn 0.090483 0.042578 0.000000
vn 0.090483 0.042578 0.000000
vn 0.092978 0.036812 0.000000
vn 0.092978 0.036812 0.000000
vn 0.095106 0.030902 0.000000
vn 0.095106 0.030902 0.000000
vn 0.096858 0.024869 0.000000
vn 0.096858 0.024869 0.000000
vn 0.098229 0.018738 0.000000
vn 0.098229 0.018738 0.000000
vn 0.099211 0.012533 0.000000
vn 0.099211 0.012533 0.000000
vn -0.099821 0.005980 -0.000000
vn -0.099821 0.005980 -0.000000
vn -0.100000 0.000000 -0.000000
vn -0.100000 0.000000 -0.000000
vn -0.099821 -0.005980 0.000000
vn -0.099821 -0.005980 0.000000
vn -0.099285 -0.011939 0.000000
vn -0.099285 -0.011939 0.000000
vn -0.098393 -0.017856 0.000000
vn -0.098393 -0.017856 0.000000
vn -0.097149 -0.023708 0.000000
vn -0.097149 -0.023708 0.000000
vn -0.095557 -0.029476 0.000000
vn -0.095557 -0.029476 0.000000
vn -0.093623 -0.035137 0.000000
vn -0.093623 -0.035137 0.000000
vn -0.091355 -0.040674 0.000000
vn -0.091355 -0.040674 0.000000
vn -0.088759 -0.046064 0.000000
vn -0.088759 -0.046064 0.000000
vn -0.085845 -0.051290 0.000000
vn -0.085845 -0.051290 0.000000
vn -0.082624 -0.056332 0.000000
vn -0.082624 -0.056332 0.000000
vn -0.079107 -0.061172 0.000000
vn -0.079107 -0.061172 0.000000
vn -0.075307 -0.065794 0.000000
vn -0.075307 -0.065794 0.000000
vn -0.071238 -0.070180 0.000000
vn -0.071238 -0.070180 0.000000
vn -0.066913 -0.074314 0.000000
vn -0.066913 -0.074314 0.000000
vn -0.062349 -0.078183 0.000000
vn -0.062349 -0.078183 0.000000
vn -0.057562 -0.081772 0.000000
vn -0.057562 -0.081772 0.000000
vn -0.052568 -0.085068 0.000000
vn -0.052568 -0.085068 0.000000
vn -0.047387 -0.088060 0.000000
vn -0.047387 -0.088060 0.000000
vn -0.042036 -0.090736 0.000000
vn -0.042036 -0.090736 0.000000
vn -0.036534 -0.093087 0.000000
vn -0.036534 -0.093087 0.000000
vn -0.030902 -0.095106 0.000000
vn -0.030902 -0.095106 0.000000
vn -0.025159 -0.096783 0.000000
vn -0.025159 -0.096783 0.000000
vn -0.019326 -0.098115 0.000000
vn -0.019326 -0.098115 0.000000
vn -0.013423 -0.099095 0.000000
vn -0.013423 -0.099095 0.000000
vn -0.007473 -0.099720 0.000000
vn -0.007473 -0.099720 0.000000
vn -0.001496 -0.099989 0.000000
vn -0.001496 -0.099989 0.000000
vn 0.004486 -0.099899 0.000000
vn 0.004486 -0.099899 0.000000
vn 0.010453 -0.099452 0.000000
vn 0.010453 -0.099452 0.000000
vn 0.016382 -0.098649 0.000000
vn 0.016382 -0.098649 0.000000
vn 0.022252 -0.097493 0.000000
vn 0.022252 -0.097493 0.000000
vn 0.028043 -0.095988 0.000000
vn 0.028043 -0.095988 0.000000
vn 0.033733 -0.094139 0.000000
vn 0.033733 -0.094139 0.000000
vn 0.039303 -0.091953 0.000000
vn 0.039303 -0.091953 0.000000
vn 0.044731 -0.089438 0.000000
vn 0.044731 -0.089438 0.000000
vn 0.050000 -0.086603 0.000000
vn 0.050000 -0.086603 0.000000
vn 0.055090 -0.083457 0.000000
vn 0.055090 -0.083457 0.000000
vn 0.059982 -0.080013 0.000000
vn 0.059982 -0.080013 0.000000
vn 0.064660 -0.076283 0.000000
vn 0.064660 -0.076283 0.000000
vn 0.069106 -0.072279 0.000000
vn 0.069106 -0.072279 0.000000
vn 0.073305 -0.068017 0.000000
vn 0.073305 -0.068017 0.000000
vn 0.077242 -0.063512 0.000000
vn 0.077242 -0.063512 0.000000
vn 0.080902 -0.058779 0.000000
vn 0.080902 -0.058779 0.000000
vn 0.084272 -0.053835 0.000000
vn 0.084272 -0.053835 0.000000
vn 0.087341 -0.048699 0.000000
vn 0.087341 -0.048699 0.000000
vn 0.090097 -0.043388 0.000000
vn 0.090097 -0.043388 0.000000
vn 0.092530 -0.037923 0.000000
vn 0.092530 -0.037923 0.000000
vn 0.094633 -0.032321 0.000000
vn 0.094633 -0.032321 0.000000
vn 0.096396 -0.026604 0.000000
vn 0.096396 -0.026604 0.000000
vn 0.097815 -0.020791 0.000000
vn 0.097815 -0.020791 0.000000
vn 0.098883 -0.014904 0.000000
vn 0.098883 -0.014904 0.000000
vn 0.099597 -0.008964 0.000000
vn 0.099597 -0.008964 0.000000
vn 0.099955 -0.002992 0.000000
vn 0.099955 -0.002992 0.000000
vn 0.099955 0.002992 0.000000
vn 0.099955 0.002992 0.000000
vn 0.099597 0.008964 0.000000
vn 0.099597 0.008964 0.000000
vn 0.098883 0.014904 0.000000
vn 0.098883 0.014904 0.000000
vn 0.097815 0.020791 0.000000
vn 0.097815 0.020791 0.000000
vn 0.096396 0.026604 0.000000
vn 0.096396 0.026604 0.000000
vn 0.094633 0.032321 0.000000
vn 0.094633 0.032321 0.000000
vn 0.092530 0.037923 0.000000
vn 0.092530 0.037923 0.000000
vn 0.090097 0.043388 0.000000
vn 0.090097 0.043388 0.000000
vn 0.087341 0.048699 0.000000
vn 0.087341 0.048699 0.000000
vn 0.084272 0.053835 0.000000
vn 0.084272 0.053835 0.000000
vn 0.080902 0.058779 0.000000
vn 0.080902 0.058779 0.000000
vn 0.077242 0.063512 0.000000
vn 0.077242 0.063512 0.000000
vn 0.073305 0.068017 0.000000
vn 0.073305 0.068017 0.000000
vn 0.069106 0.072279 0.000000
vn 0.069106 0.072279 0.000000
vn 0.064660 0.076283 0.000000
vn 0.064660 0.076283 0.000000
vn 0.059982 0.080013 0.000000
vn 0.059982 0.080013 0.000000
vn 0.055090 0.083457 0.000000
vn 0.055090 0.083457 0.000000
vn 0.050000 0.086603 0.000000
vn 0.050000 0.086603 0.000000
vn 0.044731 0.089438 0.000000
vn 0.044731 0.089438 0.000000
vn 0.039303 0.091953 0.000000
vn 0.039303 0.091953 0.000000
vn 0.033733 0.094139 0.000000
vn 0.033733 0.094139 0.000000
vn 0.028043 0.095988 0.000000
vn 0.028043 0.095988 0.000000
vn 0.022252 0.097493 0.000000
vn 0.022252 0.097493 0.000000
vn 0.016382 0.098649 0.000000
vn 0.016382 0.098649 0.000000
vn 0.010453 0.099452 0.000000
vn 0.010453 0.099452 0.000000
vn 0.004486 0.099899 0.000000
vn 0.004486 0.099899 0.000000
vn -0.001496 0.099989 -0.000000
vn -0.001496 0.099989 -0.000000
vn -0.007473 0.099720 -0.000000
vn -0.007473 0.099720 -0.000000
vn -0.013423 0.099095 -0.000000
vn -0.013423 0.099095 -0.000000
vn -0.019326 0.098115 -0.000000
vn -0.019326 0.098115 -0.000000
vn -0.025159 0.096783 -0.000000
vn -0.025159 0.096783 -0.000000
vn -0.030902 0.095106 -0.000000
vn -0.030902 0.095106 -0.000000
vn -0.036534 0.093087 -0.000000
vn -0.036534 0.093087 -0.000000
vn -0.042036 0.090736 -0.000000
vn -0.042036 0.090736 -0.000000
vn -0.047387 0.088060 -0.000000
vn -0.047387 0.088060 -0.000000
vn -0.052568 0.085068 -0.000000
vn -0.052568 0.085068 -0.000000
vn -0.057562 0.081772 -0.000000
vn -0.057562 0.081772 -0.000000
vn -0.062349 0.078183 -0.000000
vn -0.062349 0.078183 -0.000000
vn -0.066913 0.074314 -0.000000
vn -0.066913 0.074314 -0.000000
vn -0.071238 0.070180 -0.000000
vn -0.071238 0.070180 -0.000000
vn -0.075307 0.065794 -0.000000
vn -0.075307 0.065794 -0.000000
vn -0.079107 0.061172 -0.000000
vn -0.079107 0.061172 -0.000000
vn -0.082624 0.056332 -0.000000
vn -0.082624 0.056332 -0.000000
vn -0.085845 0.051290 -0.000000
vn -0.085845 0.051290 -0.000000
vn -0.088759 0.046064 -0.000000
vn -0.088759 0.046064 -0.000000
vn -0.091355 0.040674 -0.000000
vn -0.091355 0.040674 -0.000000
vn -0.093623 0.035137 -0.000000
vn -0.093623 0.035137 -0.000000
vn -0.095557 0.029476 -0.000000
vn -0.095557 0.029476 -0.000000
vn -0.097149 0.023708 -0.000000
vn -0.097149 0.023708 -0.000000
vn -0.098393 0.017856 -0.000000
vn -0.098393 0.017856 -0.000000
vn -0.099285 0.011939 -0.000000
vn -0.099285 0.011939 -0.000000
vn 0.000000 0.000000 0.100000
vn 0.000000 0.000000 0.100000
vn 0.000000 0.000000 0.100000
vn 0.000000 0.000000 0.100000
vn 0.000000 0.000000 0.100000
vn 0.000000 0.000000 0.100000
vn 0.000000 0.000000 0.100000
vn 0.000000 0.000000 0.100000
vn 0.000000 0.000000 0.100000
vn 0.000000 0.000000 0.100000
vn 0.000000 0.000000 0.100000
vn 0.000000 0.000000 0.100000
vn 0.000000 0.000000 0.100000
vn 0.000000 0.000000 0.100000
vn 0.000000 0.000000 0.100000
vn 0.000000 0.000000 0.100000
vn 0.000000 0.000000 0.100000
vn 0.000000 0.000000 0.100000
vn 0.000000 0.000000 0.100000
vn 0.000000 0.000000 0.100000
vn 0.000000 0.000000 0.100000
vn 0.000000 0.000000 0.100000
vn 0.000000 0.000000 0.100000
vn 0.000000 0.000000 0.100000
vn 0.000000 0.000000 0.100000
vn 0.000000 0.000000 0.100000
vn 0.000000 0.000000 0.100000
vn 0.000000 0.000000 0.100000
vn 0.000000 0.000000 0.100000
vn 0.000000 0.000000 0.100000
vn 0.000000 0.000000 0.100000
vn 0.000000 0.000000 0.100000
vn 0.000000 0.000000 0.100000
vn 0.000000 0.000000 0.100000
vn 0.000000 0.000000 0.100000
vn 0.000000 0.000000 0.100000
vn 0.000000 0.000000 0.100000
vn 0.000000 0.000000 0.100000
vn 0.000000 0.000000 0.100000
vn 0.000000 0.000000 0.100000
vn 0.000000 0.000000 0.100000
vn 0.000000 0.000000 0.100000
vn 0.000000 0.000000 0.100000
vn 0.000000 0.000000 0.100000
vn 0.000000 0.000000 0.100000
vn 0.000000 0.000000 0.100000
vn 0.000000 0.000000 0.100000
vn 0.000000 0.000000 0.100000
vn 0.000000 0.000000 0.100000
vn 0.000000 0.000000 0.100000
vn 0.000000 0.000000 0.100000
vn 0.000000 0.000000 0.100000
vn 0.000000 0.000000 0.100000
vn 0.000000 0.000000 0.100000
vn 0.000000 0.000000 0.100000
vn 0.000000 0.000000 0.100000
vn 0.000000 0.000000 0.100000
vn 0.000000 0.000000 0.100000
vn 0.000000 0.000000 0.100000
vn 0.000000 0.000000 0.100000
vn 0.000000 0.000000 0.100000
vn 0.000000 0.000000 0.100000
vn 0.000000 0.000000 0.100000
vn 0.000000 0.000000 0.100000
vn 0.000000 0.000000 0.100000
vn 0.000000 0.000000 0.100000
vn 0.000000 0.000000 0.100000
vn 0.000000 0.000000 0.100000
vn 0.000000 0.000000 0.100000
vn 0.000000 0.000000 0.100000
vn 0.000000 0.000000 0.100000
vn 0.000000 0.000000 0.100000
vn 0.000000 0.000000 0.100000
vn 0.000000 0.000000 0.100000
vn 0.000000 0.000000 0.100000
vn 0.000000 0.000000 0.100000
vn 0.000000 0.000000 0.100000
vn 0.000000 0.000000 0.100000
vn 0.000000 0.000000 0.100000
vn 0.000000 0.000000 0.100000
vn 0.000000 0.000000 0.100000
vn 0.000000 0.000000 0.100000
vn 0.000000 0.000000 0.100000
vn 0.000000 0.000000 0.100000
vn 0.000000 0.000000 0.100000
vn 0.000000 0.000000 0.100000
vn 0.000000 0.000000 0.100000
vn 0.000000 0.000000 0.100000
vn 0.000000 0.000000 0.100000
vn 0.000000 0.000000 0.100000
vn 0.000000 0.000000 0.100000
vn 0.000000 0.000000 0.100000
vn 0.000000 0.000000 0.100000
vn 0.000000 0.000000 0.100000
vn 0.000000 0.000000 0.100000
vn 0.000000 0.000000 0.100000
vn 0.000000 0.000000 0.100000
vn 0.000000 0.000000 0.100000
vn 0.000000 0.000000 0.100000
vn 0.000000 0.000000 0.100000
vn 0.000000 0.000000 0.100000
vn 0.000000 0.000000 0.100000
vn 0.000000 0.000000 0.100000
vn 0.000000 0.000000 0.100000
vn 0.000000 0.000000 0.100000
vn 0.000000 0.000000 0.100000
vn 0.000000 0.000000 0.100000
vn 0.000000 0.000000 0.100000
vn 0.000000 0.000000 0.100000
vn 0.000000 0.000000 0.100000
vn 0.000000 0.000000 0.100000
vn 0.000000 0.000000 0.100000
vn 0.000000 0.000000 0.100000
vn 0.000000 0.000000 0.100000
vn 0.000000 0.000000 0.100000
vn 0.000000 0.000000 0.100000
vn 0.000000 0.000000 0.100000
vn 0.000000 0.000000 0.100000
vn 0.000000 0.000000 0.100000
vn 0.000000 0.000000 0.100000
vn 0.000000 0.000000 0.100000
vn 0.000000 0.000000 0.100000
vn 0.000000 0.000000 0.100000
vn 0.000000 0.000000 0.100000
vn 0.000000 0.000000 0.100000
vn 0.000000 0.000000 0.100000
vn 0.000000 0.000000 0.100000
vn 0.000000 0.000000 0.100000
vn 0.000000 0.000000 0.100000
vn 0.000000 0.000000 0.100000
vn 0.000000 0.000000 0.100000
vn 0.000000 0.000000 0.100000
vn 0.000000 0.000000 0.100000
vn 0.000000 0.000000 0.100000
vn 0.000000 0.000000 0.100000
vn 0.000000 0.000000 0.100000
vn 0.000000 0.000000 0.100000
vn 0.000000 0.000000 0.100000
vn 0.000000 0.000000 0.100000
vn 0.000000 0.000000 0.100000
vn 0.000000 0.000000 0.100000
vn 0.000000 0.000000 0.100000
vn 0.000000 0.000000 0.100000
vn 0.000000 0.000000 0.100000
vn 0.000000 0.000000 0.100000
vn 0.000000 0.000000 0.100000
vn 0.000000 0.000000 0.100000
vn 0.000000 0.000000 0.100000
vn 0.000000 0.000000 0.100000
vn 0.000000 0.000000 0.100000
vn 0.000000 0.000000 0.100000
vn 0.000000 0.000000 0.100000
vn 0.000000 0.000000 0.100000
vn 0.000000 0.000000 0.100000
vn 0.000000 0.000000 0.100000
vn 0.000000 0.000000 0.100000
vn 0.000000 0.000000 0.100000
vn 0.000000 0.000000 0.100000
vn 0.000000 0.000000 0.100000
vn 0.000000 0.000000 0.100000
vn 0.000000 0.000000 0.100000
vn 0.000000 0.000000 0.100000
vn 0.000000 0.000000 0.100000
vn 0.000000 0.000000 0.100000
vn 0.000000 0.000000 0.100000
vn 0.000000 0.000000 0.100000
vn 0.000000 0.000000 0.100000
vn 0.000000 0.000000 0.100000
vn 0.000000 0.000000 0.100000
vn 0.000000 0.000000 0.100000
vn 0.000000 0.000000 0.100000
vn 0.000000 0.000000 0.100000
vn 0.000000 0.000000 0.100000
vn 0.000000 0.000000 0.100000
vn 0.000000 0.000000 0.100000
vn 0.000000 0.000000 0.100000
vn 0.000000 0.000000 0.100000
vn 0.000000 0.000000 0.100000
vn 0.000000 0.000000 0.100000
vn 0.000000 0.000000 0.100000
vn 0.000000 0.000000 0.100000
vn 0.000000 0.000000 0.100000
vn 0.000000 0.000000 0.100000
vn 0.000000 0.000000 0.100000
vn 0.000000 0.000000 0.100000
vn 0.000000 0.000000 0.100000
vn 0.000000 0.000000 0.100000
vn 0.000000 0.000000 0.100000
vn 0.000000 0.000000 0.100000
vn 0.000000 0.000000 0.100000
vn 0.000000 0.000000 0.100000
vn 0.000000 0.000000 0.100000
vn 0.000000 0.000000 0.100000
vn 0.000000 0.000000 0.100000
vn 0.000000 0.000000 0.100000
vn 0.000000 0.000000 0.100000
vn 0.000000 0.000000 0.100000
vn 0.000000 0.000000 0.100000
vn 0.000000 0.000000 0.100000
vn 0.000000 0.000000 0.100000
vn 0.000000 0.000000 0.100000
vn 0.000000 0.000000 0.100000
vn 0.000000 0.000000 0.100000
vn 0.000000 0.000000 0.100000
vn 0.000000 0.000000 0.100000
vn 0.000000 0.000000 -0.100000
vn 0.000000 0.000000 -0.100000
vn 0.000000 0.000000 -0.100000
vn 0.000000 0.000000 -0.100000
vn 0.000000 0.000000 -0.100000
vn 0.000000 0.000000 -0.100000
vn 0.000000 0.000000 -0.100000
vn 0.000000 0.000000 -0.100000
vn 0.000000 0.000000 -0.100000
vn 0.000000 0.000000 -0.100000
vn 0.000000 0.000000 -0.100000
vn 0.000000 0.000000 -0.100000
vn 0.000000 0.000000 -0.100000
vn 0.000000 0.000000 -0.100000
vn 0.000000 0.000000 -0.100000
vn 0.000000 0.000000 -0.100000
vn 0.000000 0.000000 -0.100000
vn 0.000000 0.000000 -0.100000
vn 0.000000 0.000000 -0.100000
vn 0.000000 0.000000 -0.100000
vn 0.000000 0.000000 -0.100000
vn 0.000000 0.000000 -0.100000
vn 0.000000 0.000000 -0.100000
vn 0.000000 0.000000 -0.100000
vn 0.000000 0.000000 -0.100000
vn 0.000000 0.000000 -0.100000
vn 0.000000 0.000000 -0.100000
vn 0.000000 0.000000 -0.100000
vn 0.000000 0.000000 -0.100000
vn 0.000000 0.000000 -0.100000
vn 0.000000 0.000000 -0.100000
vn 0.000000 0.000000 -0.100000
vn 0.000000 0.000000 -0.100000
vn 0.000000 0.000000 -0.100000
vn 0.000000 0.000000 -0.100000
vn 0.000000 0.000000 -0.100000
vn 0.000000 0.000000 -0.100000
vn 0.000000 0.000000 -0.100000
vn 0.000000 0.000000 -0.100000
vn 0.000000 0.000000 -0.100000
vn 0.000000 0.000000 -0.100000
vn 0.000000 0.000000 -0.100000
vn 0.000000 0.000000 -0.100000
vn 0.000000 0.000000 -0.100000
vn 0.000000 0.000000 -0.100000
vn 0.000000 0.000000 -0.100000
vn 0.000000 0.000000 -0.100000
vn 0.000000 0.000000 -0.100000
vn 0.000000 0.000000 -0.100000
vn 0.000000 0.000000 -0.100000
vn 0.000000 0.000000 -0.100000
vn 0.000000 0.000000 -0.100000
vn 0.000000 0.000000 -0.100000
vn 0.000000 0.000000 -0.100000
vn 0.000000 0.000000 -0.100000
vn 0.000000 0.000000 -0.100000
vn 0.000000 0.000000 -0.100000
vn 0.000000 0.000000 -0.100000
vn 0.000000 0.000000 -0.100000
vn 0.000000 0.000000 -0.100000
vn 0.000000 0.000000 -0.100000
vn 0.000000 0.000000 -0.100000
vn 0.000000 0.000000 -0.100000
vn 0.000000 0.000000 -0.100000
vn 0.000000 0.000000 -0.100000
vn 0.000000 0.000000 -0.100000
vn 0.000000 0.000000 -0.100000
vn 0.000000 0.000000 -0.100000
vn 0.000000 0.000000 -0.100000
vn 0.000000 0.000000 -0.100000
vn 0.000000 0.000000 -0.100000
vn 0.000000 0.000000 -0.100000
vn 0.000000 0.000000 -0.100000
vn 0.000000 0.000000 -0.100000
vn 0.000000 0.000000 -0.100000
vn 0.000000 0.000000 -0.100000
vn 0.000000 0.000000 -0.100000
vn 0.000000 0.000000 -0.100000
vn 0.000000 0.000000 -0.100000
vn 0.000000 0.000000 -0.100000
vn 0.000000 0.000000 -0.100000
vn 0.000000 0.000000 -0.100000
vn 0.000000 0.000000 -0.100000
vn 0.000000 0.000000 -0.100000
vn 0.000000 0.000000 -0.100000
vn 0.000000 0.000000 -0.100000
vn 0.000000 0.000000 -0.100000
vn 0.000000 0.000000 -0.100000
vn 0.000000 0.000000 -0.100000
vn 0.000000 0.000000 -0.100000
vn 0.000000 0.000000 -0.100000
vn 0.000000 0.000000 -0.100000
vn 0.000000 0.000000 -0.100000
vn 0.000000 0.000000 -0.100000
vn 0.000000 0.000000 -0.100000
vn 0.000000 0.000000 -0.100000
vn 0.000000 0.000000 -0.100000
vn 0.000000 0.000000 -0.100000
vn 0.000000 0.000000 -0.100000
vn 0.000000 0.000000 -0.100000
vn 0.000000 0.000000 -0.100000
vn 0.000000 0.000000 -0.100000
vn 0.000000 0.000000 -0.100000
vn 0.000000 0.000000 -0.100000
vn 0.000000 0.000000 -0.100000
vn 0.000000 0.000000 -0.100000
vn 0.000000 0.000000 -0.100000
vn 0.000000 0.000000 -0.100000
vn 0.000000 0.000000 -0.100000
vn 0.000000 0.000000 -0.100000
vn 0.000000 0.000000 -0.100000
vn 0.000000 0.000000 -0.100000
vn 0.000000 0.000000 -0.100000
vn 0.000000 0.000000 -0.100000
vn 0.000000 0.000000 -0.100000
vn 0.000000 0.000000 -0.100000
vn 0.000000 0.000000 -0.100000
vn 0.000000 0.000000 -0.100000
vn 0.000000 0.000000 -0.100000
vn 0.000000 0.000000 -0.100000
vn 0.000000 0.000000 -0.100000
vn 0.000000 0.000000 -0.100000
vn 0.000000 0.000000 -0.100000
vn 0.000000 0.000000 -0.100000
vn 0.000000 0.000000 -0.100000
vn 0.000000 0.000000 -0.100000
vn 0.000000 0.000000 -0.100000
vn 0.000000 0.000000 -0.100000
vn 0.000000 0.000000 -0.100000
vn 0.000000 0.000000 -0.100000
vn 0.000000 0.000000 -0.100000
vn 0.000000 0.000000 -0.100000
vn 0.000000 0.000000 -0.100000
vn 0.000000 0.000000 -0.100000
vn 0.000000 0.000000 -0.100000
vn 0.000000 0.000000 -0.100000
vn 0.000000 0.000000 -0.100000
vn 0.000000 0.000000 -0.100000
vn 0.000000 0.000000 -0.100000
vn 0.000000 0.000000 -0.100000
vn 0.000000 0.000000 -0.100000
vn 0.000000 0.000000 -0.100000
vn 0.000000 0.000000 -0.100000
vn 0.000000 0.000000 -0.100000
vn 0.000000 0.000000 -0.100000
vn 0.000000 0.000000 -0.100000
vn 0.000000 0.000000 -0.100000
vn 0.000000 0.000000 -0.100000
vn 0.000000 0.000000 -0.100000
vn 0.000000 0.000000 -0.100000
vn 0.000000 0.000000 -0.100000
vn 0.000000 0.000000 -0.100000
vn 0.000000 0.000000 -0.100000
vn 0.000000 0.000000 -0.100000
vn 0.000000 0.000000 -0.100000
vn 0.000000 0.000000 -0.100000
vn 0.000000 0.000000 -0.100000
vn 0.000000 0.000000 -0.100000
vn 0.000000 0.000000 -0.100000
vn 0.000000 0.000000 -0.100000
vn 0.000000 0.000000 -0.100000
vn 0.000000 0.000000 -0.100000
vn 0.000000 0.000000 -0.100000
vn 0.000000 0.000000 -0.100000
vn 0.000000 0.000000 -0.100000
vn 0.000000 0.000000 -0.100000
vn 0.000000 0.000000 -0.100000
vn 0.000000 0.000000 -0.100000
vn 0.000000 0.000000 -0.100000
vn 0.000000 0.000000 -0.100000
vn 0.000000 0.000000 -0.100000
vn 0.000000 0.000000 -0.100000
vn 0.000000 0.000000 -0.100000
vn 0.000000 0.000000 -0.100000
vn 0.000000 0.000000 -0.100000
vn 0.000000 0.000000 -0.100000
vn 0.000000 0.000000 -0.100000
vn 0.000000 0.000000 -0.100000
vn 0.000000 0.000000 -0.100000
vn 0.000000 0.000000 -0.100000
vn 0.000000 0.000000 -0.100000
vn 0.000000 0.000000 -0.100000
vn 0.000000 0.000000 -0.100000
vn 0.000000 0.000000 -0.100000
vn 0.000000 0.000000 -0.100000
vn 0.000000 0.000000 -0.100000
vn 0.000000 0.000000 -0.100000
vn 0.000000 0.000000 -0.100000
vn 0.000000 0.000000 -0.100000
vn 0.000000 0.000000 -0.100000
vn 0.000000 0.000000 -0.100000
vn 0.000000 0.000000 -0.100000
vn 0.000000 0.000000 -0.100000
vn 0.000000 0.000000 -0.100000
vn 0.000000 0.000000 -0.100000
vn 0.000000 0.000000 -0.100000
vn 0.000000 0.000000 -0.100000
vn 0.000000 0.000000 -0.100000
vn 0.000000 0.000000 -0.100000
vn 0.000000 0.000000 -0.100000
vn 0.000000 0.000000 -0.100000
vn 0.000000 0.000000 -0.100000
vn 0.000000 0.000000 -0.100000
vn 0.000000 0.000000 -0.100000
vn 0.000000 0.000000 -0.100000
usemtl プラスチック_-_半透明_光沢(赤)
f 2/1/1 200/2/2 1/3/3
f 1/3/3 200/2/2 101/4/4
f 1/5/3 101/6/4 100/7/5
f 100/7/5 101/6/4 102/8/6
f 100/7/5 102/8/6 99/9/7
f 99/9/7 102/8/6 103/10/8
f 99/9/7 103/10/8 98/11/9
f 98/11/9 103/10/8 104/12/10
f 98/11/9 104/12/10 97/13/11
f 97/13/11 104/12/10 105/14/12
f 97/13/11 105/14/12 96/15/13
f 96/15/13 105/14/12 106/16/14
f 96/15/13 106/16/14 95/17/15
f 95/17/15 106/16/14 107/18/16
f 95/17/15 107/18/16 94/19/17
f 94/19/17 107/18/16 108/20/18
f 94/19/17 108/20/18 93/21/19
f 93/21/19 108/20/18 109/22/20
f 93/21/19 109/22/20 92/23/21
f 92/23/21 109/22/20 110/24/22
f 92/23/21 110/24/22 91/25/23
f 91/25/23 110/24/22 111/26/24
f 91/25/23 111/26/24 90/27/25
f 90/27/25 111/26/24 112/28/26
f 90/27/25 112/28/26 89/29/27
f 89/29/27 112/28/26 113/30/28
f 89/29/27 113/30/28 88/31/29
f 88/31/29 113/30/28 114/32/30
f 88/31/29 114/32/30 87/33/31
f 87/33/31 114/32/30 115/34/32
f 87/33/31 115/34/32 86/35/33
f 86/35/33 115/34/32 116/36/34
f 86/35/33 116/36/34 85/37/35
f 85/37/35 116/36/34 117/38/36
f 85/37/35 117/38/36 84/39/37
f 84/39/37 117/38/36 118/40/38
f 84/39/37 118/40/38 83/41/39
f 83/41/39 118/40/38 119/42/40
f 83/41/39 119/42/40 82/43/41
f 82/43/41 119/42/40 120/44/42
f 82/43/41 120/44/42 81/45/43
f 81/45/43 120/44/42 121/46/44
f 81/45/43 121/46/44 80/47/45
f 80/47/45 121/46/44 122/48/46
f 80/47/45 122/48/46 79/49/47
f 79/49/47 122/48/46 123/50/48
f 79/49/47 123/50/48 78/51/49
f 78/51/49 123/50/48 124/52/50
f 78/51/49 124/52/50 77/53/51
f 77/53/51 124/52/50 125/54/52
f 77/53/51 125/54/52 76/55/53
f 76/55/53 125/54/52 126/56/54
f 76/55/53 126/56/54 75/57/55
f 75/57/55 126/56/54 127/58/56
f 75/57/55 127/58/56 74/59/57
f 74/59/57 127/58/56 128/60/58
f 74/59/57 128/60/58 73/61/59
f 73/61/59 128/60/58 129/62/60
f 73/61/59 129/62/60 72/63/61
f 72/63/61 129/62/60 130/64/62
f 72/63/61 130/64/62 71/65/63
f 71/65/63 130/64/62 131/66/64
f 71/65/63 131/66/64 70/67/65
f 70/67/65 131/66/64 132/68/66
f 70/67/65 132/68/66 69/69/67
f 69/69/67 132/68/66 133/70/68
f 69/69/67 133/70/68 68/71/69
f 68/71/69 133/70/68 134/72/70
f 68/71/69 134/72/70 67/73/71
f 67/73/71 134/72/70 135/74/72
f 67/73/71 135/74/72 66/75/73
f 66/75/73 135/74/72 136/76/74
f 66/75/73 136/76/74 65/77/75
f 65/77/75 136/76/74 137/78/76
f 65/77/75 137/78/76 64/79/77
f 64/79/77 137/78/76 138/80/78
f 64/79/77 138/80/78 63/81/79
f 63/81/79 138/80/78 139/82/80
f 63/81/79 139/82/80 62/83/81
f 62/83/81 139/82/80 140/84/82
f 62/83/81 140/84/82 61/85/83
f 61/85/83 140/84/82 141/86/84
f 61/85/83 141/86/84 60/87/85
f 60/87/85 141/86/84 142/88/86
f 60/87/85 142/88/86 59/89/87
f 59/89/87 142/88/86 143/90/88
f 59/89/87 143/90/88 58/91/89
f 58/91/89 143/90/88 144/92/90
f 58/91/89 144/92/90 57/93/91
f 57/93/91 144/92/90 145/94/92
f 57/93/91 145/94/92 56/95/93
f 56/95/93 145/94/92 146/96/94
f 56/95/93 146/96/94 55/97/95
f 55/97/95 146/96/94 147/98/96
f 55/97/95 147/98/96 54/99/97
f 54/99/97 147/98/96 148/100/98
f 54/99/97 148/100/98 53/101/99
f 53/101/99 148/100/98 149/102/100
f 53/101/99 149/102/100 52/103/101
f 52/103/101 149/102/100 150/104/102
f 52/103/101 150/104/102 51/105/103
f 51/105/103 150/104/102 151/106/104
f 51/105/103 151/106/104 50/107/105
f 50/107/105 151/106/104 152/108/106
f 50/107/105 152/108/106 49/109/107
f 49/109/107 152/108/106 153/110/108
f 49/109/107 153/110/108 48/111/109
f 48/111/109 153/110/108 154/112/110
f 48/111/109 154/112/110 47/113/111
f 47/113/111 154/112/110 155/114/112
f 47/113/111 155/114/112 46/115/113
f 46/115/113 155/114/112 156/116/114
f 46/115/113 156/116/114 45/117/115
f 45/117/115 156/116/114 157/118/116
f 45/117/115 157/118/116 44/119/117
f 44/119/117 157/118/116 158/120/118
f 44/119/117 158/120/118 43/121/119
f 43/121/119 158/120/118 159/122/120
f 43/121/119 159/122/120 42/123/121
f 42/123/121 159/122/120 160/124/122
f 42/123/121 160/124/122 41/125/123
f 41/125/123 160/124/122 161/126/124
f 41/125/123 161/126/124 40/127/125
f 40/127/125 161/126/124 162/128/126
f 40/127/125 162/128/126 39/129/127
f 39/129/127 162/128/126 163/130/128
f 39/129/127 163/130/128 38/131/129
f 38/131/129 163/130/128 164/132/130
f 38/131/129 164/132/130 37/133/131
f 37/133/131 164/132/130 165/134/132
f 37/133/131 165/134/132 36/135/133
f 36/135/133 165/134/132 166/136/134
f 36/135/133 166/136/134 35/137/135
f 35/137/135 166/136/134 167/138/136
f 35/137/135 167/138/136 34/139/137
f 34/139/137 167/138/136 168/140/138
f 34/139/137 168/140/138 33/141/139
f 33/141/139 168/140/138 169/142/140
f 33/141/139 169/142/140 32/143/141
f 32/143/141 169/142/140 170/144/142
f 32/143/141 170/144/142 31/145/143
f 31/145/143 170/144/142 171/146/144
f 31/145/143 171/146/144 30/147/145
f 30/147/145 171/146/144 172/148/146
f 30/147/145 172/148/146 29/149/147
f 29/149/147 172/148/146 173/150/148
f 29/149/147 173/150/148 28/151/149
f 28/151/149 173/150/148 174/152/150
f 28/151/149 174/152/150 27/153/151
f 27/153/151 174/152/150 175/154/152
f 27/153/151 175/154/152 26/155/153
f 26/155/153 175/154/152 176/156/154
f 26/155/153 176/156/154 25/157/155
f 25/157/155 176/156/154 177/158/156
f 25/157/155 177/158/156 24/159/157
f 24/159/157 177/158/156 178/160/158
f 24/159/157 178/160/158 23/161/159
f 23/161/159 178/160/158 179/162/160
f 23/161/159 179/162/160 22/163/161
f 22/163/161 179/162/160 180/164/162
f 22/163/161 180/164/162 21/165/163
f 21/165/163 180/164/162 181/166/164
f 21/165/163 181/166/164 20/167/165
f 20/167/165 181/166/164 182/168/166
f 20/167/165 182/168/166 19/169/167
f 19/169/167 182/168/166 183/170/168
f 19/169/167 183/170/168 18/171/169
f 18/171/169 183/170/168 184/172/170
f 18/171/169 184/172/170 17/173/171
f 17/173/171 184/172/170 185/174/172
f 17/173/171 185/174/172 16/175/173
f 16/175/173 185/174/172 186/176/174
f 16/175/173 186/176/174 15/177/175
f 15/177/175 186/176/174 187/178/176
f 15/177/175 187/178/176 14/179/177
f 14/179/177 187/178/176 188/180/178
f 14/179/177 188/180/178 13/181/179
f 13/181/179 188/180/178 189/182/180
f 13/181/179 189/182/180 12/183/181
f 12/183/181 189/182/180 190/184/182
f 12/183/181 190/184/182 11/185/183
f 11/185/183 190/184/182 191/186/184
f 11/185/183 191/186/184 10/187/185
f 10/187/185 191/186/184 192/188/186
f 10/187/185 192/188/186 9/189/187
f 9/189/187 192/188/186 193/190/188
f 9/189/187 193/190/188 8/191/189
f 8/191/189 193/190/188 194/192/190
f 8/191/189 194/192/190 7/193/191
f 7/193/191 194/192/190 195/194/192
f 7/193/191 195/194/192 6/195/193
f 6/195/193 195/194/192 196/196/194
f 6/195/193 196/196/194 5/197/195
f 5/197/195 196/196/194 197/198/196
f 5/197/195 197/198/196 4/199/197
f 4/199/197 197/198/196 198/200/198
f 4/199/197 198/200/198 3/201/199
f 3/201/199 198/200/198 199/202/200
f 3/201/199 199/202/200 2/1/1
f 2/1/1 199/202/200 200/2/2
f 202/203/201 410/204/202 201/205/203
f 201/205/203 410/204/202 306/206/204
f 201/207/203 306/208/204 305/209/205
f 305/209/205 306/208/204 307/210/206
f 305/209/205 307/210/206 304/211/207
f 304/211/207 307/210/206 308/212/208
f 304/211/207 308/212/208 303/213/209
f 303/213/209 308/212/208 309/214/210
f 303/213/209 309/214/210 302/215/211
f 302/215/211 309/214/210 310/216/212
f 302/215/211 310/216/212 301/217/213
f 301/217/213 310/216/212 311/218/214
f 301/217/213 311/218/214 300/219/215
f 300/219/215 311/218/214 312/220/216
f 300/219/215 312/220/216 299/221/217
f 299/221/217 312/220/216 313/222/218
f 299/221/217 313/222/218 298/223/219
f 298/223/219 313/222/218 314/224/220
f 298/223/219 314/224/220 297/225/221
f 297/225/221 314/224/220 315/226/222
f 297/225/221 315/226/222 296/227/223
f 296/227/223 315/226/222 316/228/224
f 296/227/223 316/228/224 295/229/225
f 295/229/225 316/228/224 317/230/226
f 295/229/225 317/230/226 294/231/227
f 294/231/227 317/230/226 318/232/228
f 294/231/227 318/232/228 293/233/229
f 293/233/229 318/232/228 319/234/230
f 293/233/229 319/234/230 292/235/231
f 292/235/231 319/234/230 320/236/232
f 292/235/231 320/236/232 291/237/233
f 291/237/233 320/236/232 321/238/234
f 291/237/233 321/238/234 290/239/235
f 290/239/235 321/238/234 322/240/236
f 290/239/235 322/240/236 289/241/237
f 289/241/237 322/240/236 323/242/238
f 289/241/237 323/242/238 288/243/239
f 288/243/239 323/242/238 324/244/240
f 288/243/239 324/244/240 287/245/241
f 287/245/241 324/244/240 325/246/242
f 287/245/241 325/246/242 286/247/243
f 286/247/243 325/246/242 326/248/244
f 286/247/243 326/248/244 285/249/245
f 285/249/245 326/248/244 327/250/246
f 285/249/245 327/250/246 284/251/247
f 284/251/247 327/250/246 328/252/248
f 284/251/247 328/252/248 283/253/249
f 283/253/249 328/252/248 329/254/250
f 283/253/249 329/254/250 282/255/251
f 282/255/251 329/254/250 330/256/252
f 282/255/251 330/256/252 281/257/253
f 281/257/253 330/256/252 331/258/254
f 281/257/253 331/258/254 280/259/255
f 280/259/255 331/258/254 332/260/256
f 280/259/255 332/260/256 279/261/257
f 279/261/257 332/260/256 333/262/258
f 279/261/257 333/262/258 278/263/259
f 278/263/259 333/262/258 334/264/260
f 278/263/259 334/264/260 277/265/261
f 277/265/261 334/264/260 335/266/262
f 277/265/261 335/266/262 276/267/263
f 276/267/263 335/266/262 336/268/264
f 276/267/263 336/268/264 275/269/265
f 275/269/265 336/268/264 337/270/266
f 275/269/265 337/270/266 274/271/267
f 274/271/267 337/270/266 338/272/268
f 274/271/267 338/272/268 273/273/269
f 273/273/269 338/272/268 339/274/270
f 273/273/269 339/274/270 272/275/271
f 272/275/271 339/274/270 340/276/272
f 272/275/271 340/276/272 271/277/273
f 271/277/273 340/276/272 341/278/274
f 271/277/273 341/278/274 270/279/275
f 270/279/275 341/278/274 342/280/276
f 270/279/275 342/280/276 269/281/277
f 269/281/277 342/280/276 343/282/278
f 269/281/277 343/282/278 268/283/279
f 268/283/279 343/282/278 344/284/280
f 268/283/279 344/284/280 267/285/281
f 267/285/281 344/284/280 345/286/282
f 267/285/281 345/286/282 266/287/283
f 266/287/283 345/286/282 346/288/284
f 266/287/283 346/288/284 265/289/285
f 265/289/285 346/288/284 347/290/286
f 265/289/285 347/290/286 264/291/287
f 264/291/287 347/290/286 348/292/288
f 264/291/287 348/292/288 263/293/289
f 263/293/289 348/292/288 349/294/290
f 263/293/289 349/294/290 262/295/291
f 262/295/291 349/294/290 350/296/292
f 262/295/291 350/296/292 261/297/293
f 261/297/293 350/296/292 351/298/294
f 261/297/293 351/298/294 260/299/295
f 260/299/295 351/298/294 352/300/296
f 260/299/295 352/300/296 259/301/297
f 259/301/297 352/300/296 353/302/298
f 259/301/297 353/302/298 258/303/299
f 258/303/299 353/302/298 354/304/300
f 258/303/299 354/304/300 257/305/301
f 257/305/301 354/304/300 355/306/302
f 257/305/301 355/306/302 256/307/303
f 256/307/303 355/306/302 356/308/304
f 256/307/303 356/308/304 255/309/305
f 255/309/305 356/308/304 357/310/306
f 255/309/305 357/310/306 254/311/307
f 254/311/307 357/310/306 358/312/308
f 254/311/307 358/312/308 253/313/309
f 253/313/309 358/312/308 359/314/310
f 253/313/309 359/314/310 252/315/311
f 252/315/311 359/314/310 360/316/312
f 252/315/311 360/316/312 251/317/313
f 251/317/313 360/316/312 361/318/314
f 251/317/313 361/318/314 250/319/315
f 250/319/315 361/318/314 362/320/316
f 250/319/315 362/320/316 249/321/317
f 249/321/317 362/320/316 363/322/318
f 249/321/317 363/322/318 248/323/319
f 248/323/319 363/322/318 364/324/320
f 248/323/319 364/324/320 247/325/321
f 247/325/321 364/324/320 365/326/322
f 247/325/321 365/326/322 246/327/323
f 246/327/323 365/326/322 366/328/324
f 246/327/323 366/328/324 245/329/325
f 245/329/325 366/328/324 367/330/326
f 245/329/325 367/330/326 244/331/327
f 244/331/327 367/330/326 368/332/328
f 244/331/327 368/332/328 243/333/329
f 243/333/329 368/332/328 369/334/330
f 243/333/329 369/334/330 242/335/331
f 242/335/331 369/334/330 370/336/332
f 242/335/331 370/336/332 241/337/333
f 241/337/333 370/336/332 371/338/334
f 241/337/333 371/338/334 240/339/335
f 240/339/335 371/338/334 372/340/336
f 240/339/335 372/340/336 239/341/337
f 239/341/337 372/340/336 373/342/338
f 239/341/337 373/342/338 238/343/339
f 238/343/339 373/342/338 374/344/340
f 238/343/339 374/344/340 237/345/341
f 237/345/341 374/344/340 375/346/342
f 237/345/341 375/346/342 236/347/343
f 236/347/343 375/346/342 376/348/344
f 236/347/343 376/348/344 235/349/345
f 235/349/345 376/348/344 377/350/346
f 235/349/345 377/350/346 234/351/347
f 234/351/347 377/350/346 378/352/348
f 234/351/347 378/352/348 233/353/349
f 233/353/349 378/352/348 379/354/350
f 233/353/349 379/354/350 232/355/351
f 232/355/351 379/354/350 380/356/352
f 232/355/351 380/356/352 231/357/353
f 231/357/353 380/356/352 381/358/354
f 231/357/353 381/358/354 230/359/355
f 230/359/355 381/358/354 382/360/356
f 230/359/355 382/360/356 229/361/357
f 229/361/357 382/360/356 383/362/358
f 229/361/357 383/362/358 228/363/359
f 228/363/359 383/362/358 384/364/360
f 228/363/359 384/364/360 227/365/361
f 227/365/361 384/364/360 385/366/362
f 227/365/361 385/366/362 226/367/363
f 226/367/363 385/366/362 386/368/364
f 226/367/363 386/368/364 225/369/365
f 225/369/365 386/368/364 387/370/366
f 225/369/365 387/370/366 224/371/367
f 224/371/367 387/370/366 388/372/368
f 224/371/367 388/372/368 223/373/369
f 223/373/369 388/372/368 389/374/370
f 223/373/369 389/374/370 222/375/371
f 222/375/371 389/374/370 390/376/372
f 222/375/371 390/376/372 221/377/373
f 221/377/373 390/376/372 391/378/374
f 221/377/373 391/378/374 220/379/375
f 220/379/375 391/378/374 392/380/376
f 220/379/375 392/380/376 219/381/377
f 219/381/377 392/380/376 393/382/378
f 219/381/377 393/382/378 218/383/379
f 218/383/379 393/382/378 394/384/380
f 218/383/379 394/384/380 217/385/381
f 217/385/381 394/384/380 395/386/382
f 217/385/381 395/386/382 216/387/383
f 216/387/383 395/386/382 396/388/384
f 216/387/383 396/388/384 215/389/385
f 215/389/385 396/388/384 397/390/386
f 215/389/385 397/390/386 214/391/387
f 214/391/387 397/390/386 398/392/388
f 214/391/387 398/392/388 213/393/389
f 213/393/389 398/392/388 399/394/390
f 213/393/389 399/394/390 212/395/391
f 212/395/391 399/394/390 400/396/392
f 212/395/391 400/396/392 211/397/393
f 211/397/393 400/396/392 401/398/394
f 211/397/393 401/398/394 210/399/395
f 210/399/395 401/398/394 402/400/396
f 210/399/395 402/400/396 209/401/397
f 209/401/397 402/400/396 403/402/398
f 209/401/397 403/402/398 208/403/399
f 208/403/399 403/402/398 404/404/400
f 208/403/399 404/404/400 207/405/401
f 207/405/401 404/404/400 405/406/402
f 207/405/401 405/406/402 206/407/403
f 206/407/403 405/406/402 406/408/404
f 206/407/403 406/408/404 205/409/405
f 205/409/405 406/408/404 407/410/406
f 205/409/405 407/410/406 204/411/407
f 204/411/407 407/410/406 408/412/408
f 204/411/407 408/412/408 203/413/409
f 203/413/409 408/412/408 409/414/410
f 203/413/409 409/414/410 202/203/201
f 202/203/201 409/414/410 410/204/202
f 100/415/411 202/416/412 1/417/413
f 1/417/413 202/416/412 201/418/414
f 1/417/413 201/418/414 305/419/415
f 202/416/412 100/415/411 203/420/416
f 203/420/416 100/415/411 99/421/417
f 203/420/416 99/421/417 204/422/418
f 204/422/418 99/421/417 98/423/419
f 204/422/418 98/423/419 205/424/420
f 205/424/420 98/423/419 97/425/421
f 205/424/420 97/425/421 206/426/422
f 206/426/422 97/425/421 96/427/423
f 206/426/422 96/427/423 207/428/424
f 207/428/424 96/427/423 95/429/425
f 207/428/424 95/429/425 208/430/426
f 208/430/426 95/429/425 94/431/427
f 208/430/426 94/431/427 209/432/428
f 209/432/428 94/431/427 93/433/429
f 209/432/428 93/433/429 210/434/430
f 210/434/430 93/433/429 92/435/431
f 210/434/430 92/435/431 211/436/432
f 211/436/432 92/435/431 91/437/433
f 211/436/432 91/437/433 212/438/434
f 212/438/434 91/437/433 90/439/435
f 212/438/434 90/439/435 213/440/436
f 213/440/436 90/439/435 89/441/437
f 213/440/436 89/441/437 214/442/438
f 214/442/438 89/441/437 88/443/439
f 214/442/438 88/443/439 215/444/440
f 215/444/440 88/443/439 87/445/441
f 215/444/440 87/445/441 216/446/442
f 216/446/442 87/445/441 86/447/443
f 216/446/442 86/447/443 217/448/444
f 217/448/444 86/447/443 85/449/445
f 217/448/444 85/449/445 218/450/446
f 218/450/446 85/449/445 84/451/447
f 218/450/446 84/451/447 219/452/448
f 219/452/448 84/451/447 83/453/449
f 219/452/448 83/453/449 220/454/450
f 220/454/450 83/453/449 82/455/451
f 220/454/450 82/455/451 221/456/452
f 221/456/452 82/455/451 81/457/453
f 221/456/452 81/457/453 222/458/454
f 222/458/454 81/457/453 223/459/455
f 223/459/455 81/457/453 80/460/456
f 223/459/455 80/460/456 224/461/457
f 224/461/457 80/460/456 79/462/458
f 224/461/457 79/462/458 225/463/459
f 225/463/459 79/462/458 78/464/460
f 225/463/459 78/464/460 226/465/461
f 226/465/461 78/464/460 77/466/462
f 226/465/461 77/466/462 227/467/463
f 227/467/463 77/466/462 76/468/464
f 227/467/463 76/468/464 228/469/465
f 228/469/465 76/468/464 75/470/466
f 228/469/465 75/470/466 229/471/467
f 229/471/467 75/470/466 74/472/468
f 229/471/467 74/472/468 230/473/469
f 230/473/469 74/472/468 73/474/470
f 230/473/469 73/474/470 231/475/471
f 231/475/471 73/474/470 72/476/472
f 231/475/471 72/476/472 232/477/473
f 232/477/473 72/476/472 71/478/474
f 232/477/473 71/478/474 233/479/475
f 233/479/475 71/478/474 70/480/476
f 233/479/475 70/480/476 234/481/477
f 234/481/477 70/480/476 69/482/478
f 234/481/477 69/482/478 235/483/479
f 235/483/479 69/482/478 68/484/480
f 235/483/479 68/484/480 236/485/481
f 236/485/481 68/484/480 67/486/482
f 236/485/481 67/486/482 237/487/483
f 237/487/483 67/486/482 66/488/484
f 237/487/483 66/488/484 238/489/485
f 238/489/485 66/488/484 65/490/486
f 238/489/485 65/490/486 239/491/487
f 239/491/487 65/490/486 64/492/488
f 239/491/487 64/492/488 240/493/489
f 240/493/489 64/492/488 63/494/490
f 240/493/489 63/494/490 241/495/491
f 241/495/491 63/494/490 62/496/492
f 241/495/491 62/496/492 242/497/493
f 242/497/493 62/496/492 61/498/494
f 242/497/493 61/498/494 243/499/495
f 243/499/495 61/498/494 244/500/496
f 244/500/496 61/498/494 60/501/497
f 244/500/496 60/501/497 245/502/498
f 245/502/498 60/501/497 59/503/499
f 245/502/498 59/503/499 246/504/500
f 246/504/500 59/503/499 58/505/501
f 246/504/500 58/505/501 247/506/502
f 247/506/502 58/505/501 57/507/503
f 247/506/502 57/507/503 248/508/504
f 248/508/504 57/507/503 56/509/505
f 248/508/504 56/509/505 249/510/506
f 249/510/506 56/509/505 55/511/507
f 249/510/506 55/511/507 250/512/508
f 250/512/508 55/511/507 54/513/509
f 250/512/508 54/513/509 251/514/510
f 251/514/510 54/513/509 53/515/511
f 251/514/510 53/515/511 252/516/512
f 252/516/512 53/515/511 52/517/513
f 252/516/512 52/517/513 253/518/514
f 253/518/514 52/517/513 51/519/515
f 253/518/514 51/519/515 254/520/516
f 254/520/516 51/519/515 50/521/517
f 254/520/516 50/521/517 255/522/518
f 255/522/518 50/521/517 49/523/519
f 255/522/518 49/523/519 256/524/520
f 256/524/520 49/523/519 48/525/521
f 256/524/520 48/525/521 257/526/522
f 257/526/522 48/525/521 47/527/523
f 257/526/522 47/527/523 258/528/524
f 258/528/524 47/527/523 46/529/525
f 258/528/524 46/529/525 259/530/526
f 259/530/526 46/529/525 45/531/527
f 259/530/526 45/531/527 260/532/528
f 260/532/528 45/531/527 44/533/529
f 260/532/528 44/533/529 261/534/530
f 261/534/530 44/533/529 43/535/531
f 261/534/530 43/535/531 262/536/532
f 262/536/532 43/535/531 42/537/533
f 262/536/532 42/537/533 263/538/534
f 263/538/534 42/537/533 41/539/535
f 263/538/534 41/539/535 264/540/536
f 264/540/536 41/539/535 265/541/537
f 265/541/537 41/539/535 40/542/538
f 265/541/537 40/542/538 266/543/539
f 266/543/539 40/542/538 39/544/540
f 266/543/539 39/544/540 267/545/541
f 267/545/541 39/544/540 38/546/542
f 267/545/541 38/546/542 268/547/543
f 268/547/543 38/546/542 37/548/544
f 268/547/543 37/548/544 269/549/545
f 269/549/545 37/548/544 36/550/546
f 269/549/545 36/550/546 270/551/547
f 270/551/547 36/550/546 35/552/548
f 270/551/547 35/552/548 271/553/549
f 271/553/549 35/552/548 34/554/550
f 271/553/549 34/554/550 272/555/551
f 272/555/551 34/554/550 33/556/552
f 272/555/551 33/556/552 273/557/553
f 273/557/553 33/556/552 32/558/554
f 273/557/553 32/558/554 274/559/555
f 274/559/555 32/558/554 31/560/556
f 274/559/555 31/560/556 275/561/557
f 275/561/557 31/560/556 30/562/558
f 275/561/557 30/562/558 276/563/559
f 276/563/559 30/562/558 29/564/560
f 276/563/559 29/564/560 277/565/561
f 277/565/561 29/564/560 28/566/562
f 277/565/561 28/566/562 278/567/563
f 278/567/563 28/566/562 27/568/564
f 278/567/563 27/568/564 279/569/565
f 279/569/565 27/568/564 26/570/566
f 279/569/565 26/570/566 280/571/567
f 280/571/567 26/570/566 25/572/568
f 280/571/567 25/572/568 281/573/569
f 281/573/569 25/572/568 24/574/570
f 281/573/569 24/574/570 282/575/571
f 282/575/571 24/574/570 23/576/572
f 282/575/571 23/576/572 283/577/573
f 283/577/573 23/576/572 22/578/574
f 283/577/573 22/578/574 284/579/575
f 284/579/575 22/578/574 21/580/576
f 284/579/575 21/580/576 285/581/577
f 285/581/577 21/580/576 286/582/578
f 286/582/578 21/580/576 20/583/579
f 286/582/578 20/583/579 287/584/580
f 287/584/580 20/583/579 19/585/581
f 287/584/580 19/585/581 288/586/582
f 288/586/582 19/585/581 18/587/583
f 288/586/582 18/587/583 289/588/584
f 289/588/584 18/587/583 17/589/585
f 289/588/584 17/589/585 290/590/586
f 290/590/586 17/589/585 16/591/587
f 290/590/586 16/591/587 291/592/588
f 291/592/588 16/591/587 15/593/589
f 291/592/588 15/593/589 292/594/590
f 292/594/590 15/593/589 14/595/591
f 292/594/590 14/595/591 293/596/592
f 293/596/592 14/595/591 13/597/593
f 293/596/592 13/597/593 294/598/594
f 294/598/594 13/597/593 12/599/595
f 294/598/594 12/599/595 295/600/596
f 295/600/596 12/599/595 11/601/597
f 295/600/596 11/601/597 296/602/598
f 296/602/598 11/601/597 10/603/599
f 296/602/598 10/603/599 297/604/600
f 297/604/600 10/603/599 9/605/601
f 297/604/600 9/605/601 298/606/602
f 298/606/602 9/605/601 8/607/603
f 298/606/602 8/607/603 299/608/604
f 299/608/604 8/607/603 7/609/605
f 299/608/604 7/609/605 300/610/606
f 300/610/606 7/609/605 6/611/607
f 300/610/606 6/611/607 301/612/608
f 301/612/608 6/611/607 5/613/609
f 301/612/608 5/613/609 302/614/610
f 302/614/610 5/613/609 4/615/611
f 302/614/610 4/615/611 303/616/612
f 303/616/612 4/615/611 3/617/613
f 303/616/612 3/617/613 304/618/614
f 304/618/614 3/617/613 2/619/615
f 304/618/614 2/619/615 305/419/415
f 305/419/415 2/619/615 1/417/413
f 200/620/616 307/621/617 101/622/618
f 101/622/618 307/621/617 306/623/619
f 101/622/618 306/623/619 410/624/620
f 307/621/617 200/620/616 308/625/621
f 308/625/621 200/620/616 199/626/622
f 308/625/621 199/626/622 309/627/623
f 309/627/623 199/626/622 198/628/624
f 309/627/623 198/628/624 310/629/625
f 310/629/625 198/628/624 197/630/626
f 310/629/625 197/630/626 311/631/627
f 311/631/627 197/630/626 196/632/628
f 311/631/627 196/632/628 312/633/629
f 312/633/629 196/632/628 195/634/630
f 312/633/629 195/634/630 313/635/631
f 313/635/631 195/634/630 194/636/632
f 313/635/631 194/636/632 314/637/633
f 314/637/633 194/636/632 193/638/634
f 314/637/633 193/638/634 315/639/635
f 315/639/635 193/638/634 192/640/636
f 315/639/635 192/640/636 316/641/637
f 316/641/637 192/640/636 191/642/638
f 316/641/637 191/642/638 317/643/639
f 317/643/639 191/642/638 190/644/640
f 317/643/639 190/644/640 318/645/641
f 318/645/641 190/644/640 189/646/642
f 318/645/641 189/646/642 319/647/643
f 319/647/643 189/646/642 188/648/644
f 319/647/643 188/648/644 320/649/645
f 320/649/645 188/648/644 187/650/646
f 320/649/645 187/650/646 321/651/647
f 321/651/647 187/650/646 186/652/648
f 321/651/647 186/652/648 322/653/649
f 322/653/649 186/652/648 185/654/650
f 322/653/649 185/654/650 323/655/651
f 323/655/651 185/654/650 184/656/652
f 323/655/651 184/656/652 324/657/653
f 324/657/653 184/656/652 183/658/654
f 324/657/653 183/658/654 325/659/655
f 325/659/655 183/658/654 182/660/656
f 325/659/655 182/660/656 326/661/657
f 326/661/657 182/660/656 181/662/658
f 326/661/657 181/662/658 327/663/659
f 327/663/659 181/662/658 328/664/660
f 328/664/660 181/662/658 180/665/661
f 328/664/660 180/665/661 329/666/662
f 329/666/662 180/665/661 179/667/663
f 329/666/662 179/667/663 330/668/664
f 330/668/664 179/667/663 178/669/665
f 330/668/664 178/669/665 331/670/666
f 331/670/666 178/669/665 177/671/667
f 331/670/666 177/671/667 332/672/668
f 332/672/668 177/671/667 176/673/669
f 332/672/668 176/673/669 333/674/670
f 333/674/670 176/673/669 175/675/671
f 333/674/670 175/675/671 334/676/672
f 334/676/672 175/675/671 174/677/673
f 334/676/672 174/677/673 335/678/674
f 335/678/674 174/677/673 173/679/675
f 335/678/674 173/679/675 336/680/676
f 336/680/676 173/679/675 172/681/677
f 336/680/676 172/681/677 337/682/678
f 337/682/678 172/681/677 171/683/679
f 337/682/678 171/683/679 338/684/680
f 338/684/680 171/683/679 170/685/681
f 338/684/680 170/685/681 339/686/682
f 339/686/682 170/685/681 169/687/683
f 339/686/682 169/687/683 340/688/684
f 340/688/684 169/687/683 168/689/685
f 340/688/684 168/689/685 341/690/686
f 341/690/686 168/689/685 167/691/687
f 341/690/686 167/691/687 342/692/688
f 342/692/688 167/691/687 166/693/689
f 342/692/688 166/693/689 343/694/690
f 343/694/690 166/693/689 165/695/691
f 343/694/690 165/695/691 344/696/692
f 344/696/692 165/695/691 164/697/693
f 344/696/692 164/697/693 345/698/694
f 345/698/694 164/697/693 163/699/695
f 345/698/694 163/699/695 346/700/696
f 346/700/696 163/699/695 162/701/697
f 346/700/696 162/701/697 347/702/698
f 347/702/698 162/701/697 161/703/699
f 347/702/698 161/703/699 348/704/700
f 348/704/700 161/703/699 349/705/701
f 349/705/701 161/703/699 160/706/702
f 349/705/701 160/706/702 350/707/703
f 350/707/703 160/706/702 159/708/704
f 350/707/703 159/708/704 351/709/705
f 351/709/705 159/708/704 158/710/706
f 351/709/705 158/710/706 352/711/707
f 352/711/707 158/710/706 157/712/708
f 352/711/707 157/712/708 353/713/709
f 353/713/709 157/712/708 156/714/710
f 353/713/709 156/714/710 354/715/711
f 354/715/711 156/714/710 155/716/712
f 354/715/711 155/716/712 355/717/713
f 355/717/713 155/716/712 154/718/714
f 355/717/713 154/718/714 356/719/715
f 356/719/715 154/718/714 153/720/716
f 356/719/715 153/720/716 357/721/717
f 357/721/717 153/720/716 152/722/718
f 357/721/717 152/722/718 358/723/719
f 358/723/719 152/722/718 151/724/720
f 358/723/719 151/724/720 359/725/721
f 359/725/721 151/724/720 150/726/722
f 359/725/721 150/726/722 360/727/723
f 360/727/723 150/726/722 149/728/724
f 360/727/723 149/728/724 361/729/725
f 361/729/725 149/728/724 148/730/726
f 361/729/725 148/730/726 362/731/727
f 362/731/727 148/730/726 147/732/728
f 362/731/727 147/732/728 363/733/729
f 363/733/729 147/732/728 146/734/730
f 363/733/729 146/734/730 364/735/731
f 364/735/731 146/734/730 145/736/732
f 364/735/731 145/736/732 365/737/733
f 365/737/733 145/736/732 144/738/734
f 365/737/733 144/738/734 366/739/735
f 366/739/735 144/738/734 143/740/736
f 366/739/735 143/740/736 367/741/737
f 367/741/737 143/740/736 142/742/738
f 367/741/737 142/742/738 368/743/739
f 368/743/739 142/742/738 141/744/740
f 368/743/739 141/744/740 369/745/741
f 369/745/741 141/744/740 370/746/742
f 370/746/742 141/744/740 140/747/743
f 370/746/742 140/747/743 371/748/744
f 371/748/744 140/747/743 139/749/745
f 371/748/744 139/749/745 372/750/746
f 372/750/746 139/749/745 138/751/747
f 372/750/746 138/751/747 373/752/748
f 373/752/748 138/751/747 137/753/749
f 373/752/748 137/753/749 374/754/750
f 374/754/750 137/753/749 136/755/751
f 374/754/750 136/755/751 375/756/752
f 375/756/752 136/755/751 135/757/753
f 375/756/752 135/757/753 376/758/754
f 376/758/754 135/757/753 134/759/755
f 376/758/754 134/759/755 377/760/756
f 377/760/756 134/759/755 133/761/757
f 377/760/756 133/761/757 378/762/758
f 378/762/758 133/761/757 132/763/759
f 378/762/758 132/763/759 379/764/760
f 379/764/760 132/763/759 131/765/761
f 379/764/760 131/765/761 380/766/762
f 380/766/762 131/765/761 130/767/763
f 380/766/762 130/767/763 381/768/764
f 381/768/764 130/767/763 129/769/765
f 381/768/764 129/769/765 382/770/766
f 382/770/766 129/769/765 128/771/767
f 382/770/766 128/771/767 383/772/768
f 383/772/768 128/771/767 127/773/769
f 383/772/768 127/773/769 384/774/770
f 384/774/770 127/773/769 126/775/771
f 384/774/770 126/775/771 385/776/772
f 385/776/772 126/775/771 125/777/773
f 385/776/772 125/777/773 386/778/774
f 386/778/774 125/777/773 124/779/775
f 386/778/774 124/779/775 387/780/776
f 387/780/776 124/779/775 123/781/777
f 387/780/776 123/781/777 388/782/778
f 388/782/778 123/781/777 122/783/779
f 388/782/778 122/783/779 389/784/780
f 389/784/780 122/783/779 121/785/781
f 389/784/780 121/785/781 390/786/782
f 390/786/782 121/785/781 391/787/783
f 391/787/783 121/785/781 120/788/784
f 391/787/783 120/788/784 392/789/785
f 392/789/785 120/788/784 119/790/786
f 392/789/785 119/790/786 393/791/787
f 393/791/787 119/790/786 118/792/788
f 393/791/787 118/792/788 394/793/789
f 394/793/789 118/792/788 117/794/790
f 394/793/789 117/794/790 395/795/791
f 395/795/791 117/794/790 116/796/792
f 395/795/791 116/796/792 396/797/793
f 396/797/793 116/796/792 115/798/794
f 396/797/793 115/798/794 397/799/795
f 397/799/795 115/798/794 114/800/796
f 397/799/795 114/800/796 398/801/797
f 398/801/797 114/800/796 113/802/798
f 398/801/797 113/802/798 399/803/799
f 399/803/799 113/802/798 112/804/800
f 399/803/799 112/804/800 400/805/801
f 400/805/801 112/804/800 111/806/802
f 400/805/801 111/806/802 401/807/803
f 401/807/803 111/806/802 110/808/804
f 401/807/803 110/808/804 402/809/805
f 402/809/805 110/808/804 109/810/806
f 402/809/805 109/810/806 403/811/807
f 403/811/807 109/810/806 108/812/808
f 403/811/807 108/812/808 404/813/809
f 404/813/809 108/812/808 107/814/810
f 404/813/809 107/814/810 405/815/811
f 405/815/811 107/814/810 106/816/812
f 405/815/811 106/816/812 406/817/813
f 406/817/813 106/816/812 105/818/814
f 406/817/813 105/818/814 407/819/815
f 407/819/815 105/818/814 104/820/816
f 407/819/815 104/820/816 408/821/817
f 408/821/817 104/820/816 103/822/818
f 408/821/817 103/822/818 409/823/819
f 409/823/819 103/822/818 102/824/820
f 409/823/819 102/824/820 410/624/620
f 410/624/620 102/824/820 101/622/618
# 410 vertices
# 824 texture params
# 820 normals
# 820 facets

# 1 groups
